<svg width="306" height="431" viewBox="0 0 306 431" fill="none" xmlns="http://www.w3.org/2000/svg">
<path opacity="0.5" d="M220.951 150.429C186.37 130.275 157.768 149.136 152.709 192.573C151.83 200.126 157.559 210.057 164.5 214.104L277.359 279.866C284.3 283.913 290.029 280.658 289.193 272.104C284.133 222.742 255.532 170.541 220.951 150.429Z" fill="url(#paint0_linear_1012_716)"/>
<path opacity="0.5" d="M259.504 93.9728C259.504 123.974 242.109 138.161 220.658 125.643C199.249 113.167 181.854 78.7425 181.854 48.7409C181.854 18.7394 199.249 4.55225 220.7 17.0703C242.151 29.5466 259.504 64.0129 259.504 93.9728Z" fill="url(#paint1_linear_1012_716)"/>
<path opacity="0.07" d="M237.677 137.911C203.096 117.757 174.494 136.617 169.435 180.055C168.556 187.608 174.285 197.539 181.226 201.586L294.085 267.347C301.026 271.395 306.755 268.14 305.919 259.586C300.859 210.223 272.258 158.023 237.677 137.911Z" fill="url(#paint2_linear_1012_716)"/>
<path opacity="0.07" d="M276.23 81.4547C276.23 111.456 258.835 125.643 237.384 113.125C215.975 100.649 198.58 66.2244 198.58 36.2229C198.58 6.22129 215.975 -7.96582 237.426 4.55222C258.877 17.0285 276.23 51.4949 276.23 81.4547Z" fill="url(#paint3_linear_1012_716)"/>
<path opacity="0.2" d="M77.8595 165.743L0 120.886V161.361L77.9013 206.218L77.8595 165.743Z" fill="url(#paint4_linear_1012_716)"/>
<path d="M15.8063 143.586C15.8063 146.924 13.841 148.468 11.3739 147.091C8.94865 145.672 6.94153 141.833 6.94153 138.495C6.94153 135.157 8.90683 133.613 11.3739 134.99C13.841 136.409 15.8063 140.248 15.8063 143.586Z" fill="#F2994A"/>
<path opacity="0.15" d="M19.8205 142.334L45.2858 156.98V162.655L19.8205 148.009V142.334Z" fill="white"/>
<path opacity="0.15" d="M19.9458 153.767L69.8311 182.517V188.192L19.9458 159.442V153.767Z" fill="white"/>
<path opacity="0.05" d="M200.796 206.552L279.031 251.617V419.734L200.796 374.711V206.552Z" fill="url(#paint5_linear_1012_716)"/>
<path opacity="0.3" d="M265.985 262.883L187.708 217.818V385.935L265.943 431L265.985 262.883ZM213.215 243.271L239.349 258.293V264.969L213.215 250.156V243.271Z" fill="url(#paint6_linear_1012_716)"/>
<path opacity="0.15" d="M195.276 324.346L258.124 360.523V366.198L195.276 330.021V324.346Z" fill="white"/>
<path opacity="0.15" d="M199.709 337.949L253.775 369.077V374.752L199.709 343.624V337.949Z" fill="white"/>
<path d="M244.325 310.201C244.325 296.89 236.506 281.576 226.888 276.027C217.271 270.477 209.451 276.778 209.451 290.089C209.451 303.399 217.271 318.713 226.888 324.263C236.506 329.813 244.325 323.512 244.325 310.201Z" fill="#F2994A"/>
<path opacity="0.05" d="M103.367 71.2316L181.603 116.297V284.414L103.367 239.349V71.2316Z" fill="url(#paint7_linear_1012_716)"/>
<path opacity="0.3" d="M168.556 127.688L90.2787 82.623V250.74L168.515 295.805L168.556 127.688ZM115.786 108.076L141.92 123.098V129.774L115.786 114.961V108.076Z" fill="url(#paint8_linear_1012_716)"/>
<path opacity="0.15" d="M97.847 188.985L160.695 225.162V230.837L97.847 194.659V188.985Z" fill="white"/>
<path opacity="0.15" d="M102.238 202.629L156.263 233.757V239.432L102.196 208.304L102.238 202.629Z" fill="white"/>
<path d="M146.896 174.881C146.896 161.57 139.077 146.256 129.459 140.707C119.842 135.157 112.022 141.458 112.022 154.769C112.022 168.08 119.842 183.393 129.459 188.943C139.077 194.493 146.896 188.192 146.896 174.881Z" fill="#F2C94C"/>
<path opacity="0.3" d="M146.896 268.641L22.4547 196.954L22.4965 261.673L135.941 327.017L146.938 343.249L146.896 268.641Z" fill="url(#paint9_linear_1012_716)"/>
<path d="M9.1993 222.199V204.632L56.1575 231.671V249.238L9.1993 222.199Z" fill="#F2994A"/>
<path opacity="0.15" d="M114.908 265.971L87.6444 250.281V255.956L114.908 271.645V265.971Z" fill="white"/>
<path opacity="0.15" d="M114.908 277.362L62.3464 247.11V252.785L114.908 283.037V277.362Z" fill="white"/>
<path opacity="0.15" d="M114.908 288.712L51.2654 252.034V257.709L114.95 294.387L114.908 288.712Z" fill="white"/>
<path d="M121.64 275.776C121.64 281.117 124.818 287.251 128.707 289.504C132.595 291.758 135.773 289.254 135.773 283.913C135.773 278.572 132.595 272.438 128.707 270.185C124.776 267.932 121.598 270.435 121.64 275.776Z" fill="#F2994A"/>
<path opacity="0.2" d="M49.3418 74.4445C51.8507 75.8632 53.8578 79.3683 53.8578 82.2474V94.9741L62.3044 99.8144C64.8133 101.233 66.8204 104.738 66.8204 107.617C66.8204 110.496 64.8133 111.665 62.3044 110.246L53.8578 105.406V118.132C53.8578 121.012 51.8507 122.18 49.3418 120.761C46.8329 119.343 44.8257 115.837 44.8257 112.958V100.232L36.3791 95.3914C33.8702 93.9726 31.8631 90.4676 31.8631 87.5884C31.8631 84.7093 33.8702 83.541 36.3791 84.9597L44.8257 89.8V77.0733C44.8257 74.1941 46.8329 73.0258 49.3418 74.4445Z" fill="url(#paint10_linear_1012_716)"/>
<defs>
<linearGradient id="paint0_linear_1012_716" x1="363.638" y1="117.556" x2="223.378" y2="220.088" gradientUnits="userSpaceOnUse">
<stop stop-color="white"/>
<stop offset="1" stop-color="white" stop-opacity="0"/>
</linearGradient>
<linearGradient id="paint1_linear_1012_716" x1="292.055" y1="19.4065" x2="151.795" y2="121.938" gradientUnits="userSpaceOnUse">
<stop stop-color="white"/>
<stop offset="1" stop-color="white" stop-opacity="0"/>
</linearGradient>
<linearGradient id="paint2_linear_1012_716" x1="380.364" y1="105.038" x2="240.104" y2="207.569" gradientUnits="userSpaceOnUse">
<stop stop-color="white"/>
<stop offset="1" stop-color="white" stop-opacity="0"/>
</linearGradient>
<linearGradient id="paint3_linear_1012_716" x1="308.781" y1="6.88846" x2="168.521" y2="109.42" gradientUnits="userSpaceOnUse">
<stop stop-color="white"/>
<stop offset="1" stop-color="white" stop-opacity="0"/>
</linearGradient>
<linearGradient id="paint4_linear_1012_716" x1="47.7172" y1="148.381" x2="30.2058" y2="178.784" gradientUnits="userSpaceOnUse">
<stop stop-color="white"/>
<stop offset="1" stop-color="white" stop-opacity="0"/>
</linearGradient>
<linearGradient id="paint5_linear_1012_716" x1="285.355" y1="234.629" x2="188.768" y2="402.319" gradientUnits="userSpaceOnUse">
<stop stop-color="white"/>
<stop offset="1" stop-color="white" stop-opacity="0"/>
</linearGradient>
<linearGradient id="paint6_linear_1012_716" x1="272.269" y1="245.874" x2="175.682" y2="413.565" gradientUnits="userSpaceOnUse">
<stop stop-color="white"/>
<stop offset="1" stop-color="white" stop-opacity="0"/>
</linearGradient>
<linearGradient id="paint7_linear_1012_716" x1="187.923" y1="99.3013" x2="91.3362" y2="266.992" gradientUnits="userSpaceOnUse">
<stop stop-color="white"/>
<stop offset="1" stop-color="white" stop-opacity="0"/>
</linearGradient>
<linearGradient id="paint8_linear_1012_716" x1="174.84" y1="110.679" x2="78.2529" y2="278.37" gradientUnits="userSpaceOnUse">
<stop stop-color="white"/>
<stop offset="1" stop-color="white" stop-opacity="0"/>
</linearGradient>
<linearGradient id="paint9_linear_1012_716" x1="119.759" y1="242.722" x2="55.6131" y2="293.053" gradientUnits="userSpaceOnUse">
<stop stop-color="white"/>
<stop offset="1" stop-color="white" stop-opacity="0"/>
</linearGradient>
<linearGradient id="paint10_linear_1012_716" x1="58.072" y1="90.7136" x2="36.2141" y2="108" gradientUnits="userSpaceOnUse">
<stop stop-color="white"/>
<stop offset="1" stop-color="white" stop-opacity="0"/>
</linearGradient>
</defs>
</svg>
