<svg width="20" height="20" viewBox="0 0 20 20" fill="none" xmlns="http://www.w3.org/2000/svg">
<path d="M18.3327 5.94922V14.2826C18.3327 14.8351 18.1132 15.365 17.7225 15.7557C17.3318 16.1464 16.8019 16.3659 16.2493 16.3659H3.74935C3.19681 16.3659 2.66691 16.1464 2.27621 15.7557C1.88551 15.365 1.66602 14.8351 1.66602 14.2826V5.94922" stroke="white" stroke-width="1.4" stroke-linecap="round" stroke-linejoin="round"/>
<path d="M18.3327 5.94954C18.3327 5.39701 18.1132 4.86711 17.7225 4.47641C17.3318 4.0857 16.8019 3.86621 16.2493 3.86621H3.74935C3.19681 3.86621 2.66691 4.0857 2.27621 4.47641C1.88551 4.86711 1.66602 5.39701 1.66602 5.94954L8.89518 10.4634C9.22629 10.6704 9.60889 10.7801 9.99935 10.7801C10.3898 10.7801 10.7724 10.6704 11.1035 10.4634L18.3327 5.94954Z" stroke="white" stroke-width="1.4" stroke-linecap="round" stroke-linejoin="round"/>
</svg>
