<svg width="369" height="335" viewBox="0 0 369 335" fill="none" xmlns="http://www.w3.org/2000/svg">
<path opacity="0.07" d="M335.374 141.204C335.374 143.023 335.329 144.842 335.196 146.54C354.297 159.759 369 188.097 369 213.039C369 240.204 351.543 253.019 329.999 241.7C329.954 241.659 329.91 241.659 329.866 241.619L194.517 170.593C194.472 170.552 194.428 170.552 194.339 170.512C170.13 157.778 150.496 122.73 150.496 92.2091C150.496 63.6288 167.731 49.1163 189.808 57.8885C192.518 38.2824 206.954 29.8337 224.367 39.0101C232.718 43.4164 240.403 51.1375 246.4 60.4352C255.106 48.6716 269.942 45.6802 286.733 54.4928C313.608 68.5606 335.374 107.409 335.374 141.204Z" fill="url(#paint0_linear_564_1774)"/>
<path opacity="0.4" d="M313.165 160.607C313.165 162.426 313.12 164.245 312.987 165.943C332.088 179.162 346.791 207.5 346.791 232.442C346.791 259.607 329.334 272.422 307.79 261.103C307.745 261.063 307.701 261.063 307.657 261.022L172.308 189.996C172.263 189.956 172.219 189.956 172.13 189.915C147.921 177.181 128.287 142.133 128.287 111.612C128.287 83.0321 145.522 68.5196 167.599 77.2918C170.309 57.6858 184.745 49.237 202.158 58.4134C210.509 62.8197 218.194 70.5408 224.191 79.8385C232.897 68.0749 247.734 65.0835 264.524 73.8961C291.399 87.9639 313.165 126.812 313.165 160.607Z" fill="url(#paint1_linear_564_1774)"/>
<path opacity="0.2" d="M98.8786 195.211L78.2676 184.377V178.03L98.8786 188.864C100.567 189.753 103.01 191.532 105.097 194.281C107.363 197.232 108.962 200.951 108.962 204.994C108.962 209.44 107.718 211.987 105.32 212.715C103.099 213.402 100.478 212.23 98.8342 211.381L90.3499 206.934L90.3055 206.894C89.5948 206.489 88.4398 206.125 87.507 206.368C86.7519 206.57 85.9079 207.257 85.9079 209.723C85.9079 212.189 86.7519 213.725 87.4626 214.615C88.351 215.747 89.5059 216.555 90.2167 216.878L90.3055 216.919L116.203 230.542V236.889L90.4388 223.346C88.662 222.498 86.13 220.719 83.909 217.889C81.5103 214.817 79.8223 210.896 79.8667 206.53C79.8667 202.204 81.5103 199.981 83.909 199.375C86.13 198.809 88.662 199.617 90.4388 200.628L98.8342 205.034C100.034 205.681 100.966 205.964 101.544 205.762C101.988 205.64 102.876 205.034 102.876 201.8C102.876 199.738 102.121 198.364 101.455 197.434C100.655 196.383 99.5449 195.575 98.8786 195.211Z" fill="white"/>
<path d="M82.7094 182.801C82.7094 188.015 79.3334 190.481 75.2024 188.339C71.0713 186.156 67.6953 180.173 67.6953 174.918C67.6953 169.703 71.0713 167.237 75.2024 169.38C79.3334 171.563 82.7094 177.586 82.7094 182.801Z" fill="#F2994A"/>
<path d="M126.686 238.991C126.686 244.206 123.31 246.672 119.179 244.529C115.048 242.346 111.672 236.363 111.672 231.108C111.672 225.893 115.048 223.428 119.179 225.57C123.31 227.753 126.686 233.776 126.686 238.991Z" fill="#F2994A"/>
<path opacity="0.07" d="M162.179 104.7L295.396 174.675V238.83L162.135 168.854L162.179 104.7Z" fill="url(#paint2_linear_564_1774)"/>
<path opacity="0.3" d="M144.367 112.785L277.584 182.76V246.914L144.367 176.939V112.785Z" fill="url(#paint3_linear_564_1774)"/>
<path d="M156.314 150.987C156.314 156.161 159.69 162.103 163.821 164.286C167.953 166.469 171.329 164.044 171.329 158.87C171.329 153.695 167.953 147.753 163.821 145.57C159.69 143.387 156.314 145.812 156.314 150.987Z" fill="#F2994A"/>
<path opacity="0.15" d="M175.105 160.971C175.105 163.356 176.66 166.146 178.615 167.156C180.525 168.167 182.079 167.035 182.079 164.65C182.079 162.265 180.525 159.475 178.57 158.465C176.66 157.454 175.105 158.586 175.105 160.971Z" fill="white"/>
<path opacity="0.15" d="M185.811 166.59C185.811 168.975 187.365 171.765 189.32 172.775C191.23 173.786 192.785 172.654 192.785 170.269C192.785 167.884 191.23 165.095 189.275 164.084C187.365 163.073 185.811 164.205 185.811 166.59Z" fill="white"/>
<path opacity="0.15" d="M243.956 177.505V214.008L238.715 211.259V174.756L243.956 177.505Z" fill="white"/>
<path opacity="0.15" d="M255.417 183.568V220.072L250.176 217.323V180.819L255.417 183.568Z" fill="white"/>
<path opacity="0.15" d="M266.921 189.633V226.136L261.68 223.387V186.884L266.921 189.633Z" fill="white"/>
<path opacity="0.07" d="M162.135 192.382L295.351 262.357V326.511L162.135 256.536V192.382Z" fill="url(#paint4_linear_564_1774)"/>
<path opacity="0.3" d="M144.367 200.871L277.584 270.846V335L144.367 265.025V200.871Z" fill="url(#paint5_linear_564_1774)"/>
<path d="M156.314 239.072C156.314 244.246 159.69 250.188 163.821 252.371C167.953 254.554 171.329 252.129 171.329 246.954C171.329 241.78 167.953 235.838 163.821 233.655C159.69 231.472 156.314 233.897 156.314 239.072Z" fill="#F2994A"/>
<path opacity="0.15" d="M175.105 249.097C175.105 251.482 176.66 254.271 178.615 255.282C180.525 256.293 182.079 255.161 182.079 252.776C182.079 250.391 180.525 247.601 178.57 246.591C176.66 245.58 175.105 246.672 175.105 249.097Z" fill="white"/>
<path opacity="0.15" d="M185.766 254.716C185.766 257.101 187.32 259.89 189.275 260.901C191.185 261.911 192.74 260.779 192.74 258.394C192.74 256.009 191.185 253.22 189.23 252.209C187.32 251.158 185.766 252.29 185.766 254.716Z" fill="white"/>
<path opacity="0.15" d="M243.956 266.844V303.347L238.715 300.598V264.095L243.956 266.844Z" fill="white"/>
<path opacity="0.15" d="M255.417 272.907V309.411L250.176 306.662V270.158L255.417 272.907Z" fill="white"/>
<path opacity="0.15" d="M266.921 278.971V315.474L261.68 312.725V276.222L266.921 278.971Z" fill="white"/>
<path opacity="0.3" d="M26.0742 17.7461L109.096 61.3644V201.355L26.0742 157.697V17.7461Z" fill="url(#paint6_linear_564_1774)"/>
<path d="M77.3349 68.4395C77.3349 75.4329 72.8929 78.7478 67.4292 75.8372C61.9655 72.9266 57.5234 64.9225 57.5234 57.929C57.5234 50.9355 61.9655 47.6207 67.4292 50.5313C72.8929 53.4419 77.3349 61.446 77.3349 68.4395Z" fill="#F2C94C"/>
<path d="M67.4312 81.4561C58.5916 76.7668 51.3066 81.1731 50.0184 91.2793C49.7963 93.0176 51.2622 95.3622 53.039 96.292L81.8678 111.613C83.6446 112.543 85.1105 111.815 84.8884 109.794C83.5558 98.2728 76.2264 86.1454 67.4312 81.4561Z" fill="#F2C94C"/>
<path opacity="0.15" d="M42.7324 108.54L92.2167 134.533V140.031L42.7324 114.038V108.54Z" fill="white"/>
<path opacity="0.15" d="M47.752 122.083L86.9751 142.659V148.157L47.752 127.581V122.083Z" fill="white"/>
<path d="M57.7465 145.206L0 114.847V130.491L57.7465 160.85V145.206Z" fill="#F2C94C"/>
<path opacity="0.2" d="M126.997 0L139.346 22.0719C141.034 25.1038 140.767 28.1356 138.724 28.8633C136.681 29.5909 133.66 27.691 131.972 24.6591L131.839 24.3761V48.8735C131.839 51.6628 129.707 52.7947 127.041 51.4203C124.376 50.0054 122.244 46.6502 122.244 43.8609V19.3635L122.111 19.4847C120.423 20.7379 117.358 19.4443 115.359 16.5741C113.316 13.704 113.049 10.3892 114.737 9.13599L126.997 0Z" fill="url(#paint7_linear_564_1774)"/>
<path opacity="0.2" d="M126.998 325.904L114.649 303.832C112.961 300.8 113.228 297.768 115.271 297.041C117.314 296.313 120.335 298.213 122.023 301.245L122.156 301.528V277.03C122.156 274.241 124.288 273.109 126.954 274.484C129.619 275.898 131.751 279.254 131.751 282.043V306.54L131.884 306.419C133.572 305.166 136.637 306.46 138.636 309.33C140.679 312.2 140.946 315.515 139.258 316.768L126.998 325.904Z" fill="url(#paint8_linear_564_1774)"/>
<defs>
<linearGradient id="paint0_linear_564_1774" x1="361.054" y1="64.0065" x2="235.901" y2="194.45" gradientUnits="userSpaceOnUse">
<stop stop-color="white"/>
<stop offset="1" stop-color="white" stop-opacity="0"/>
</linearGradient>
<linearGradient id="paint1_linear_564_1774" x1="338.84" y1="83.4099" x2="213.687" y2="213.854" gradientUnits="userSpaceOnUse">
<stop stop-color="white"/>
<stop offset="1" stop-color="white" stop-opacity="0"/>
</linearGradient>
<linearGradient id="paint2_linear_564_1774" x1="226.042" y1="109.83" x2="230.154" y2="223.341" gradientUnits="userSpaceOnUse">
<stop stop-color="white"/>
<stop offset="1" stop-color="white" stop-opacity="0"/>
</linearGradient>
<linearGradient id="paint3_linear_564_1774" x1="208.274" y1="117.915" x2="212.385" y2="231.426" gradientUnits="userSpaceOnUse">
<stop stop-color="white"/>
<stop offset="1" stop-color="white" stop-opacity="0"/>
</linearGradient>
<linearGradient id="paint4_linear_564_1774" x1="226.032" y1="197.526" x2="230.144" y2="311.036" gradientUnits="userSpaceOnUse">
<stop stop-color="white"/>
<stop offset="1" stop-color="white" stop-opacity="0"/>
</linearGradient>
<linearGradient id="paint5_linear_564_1774" x1="208.264" y1="206.015" x2="212.376" y2="319.525" gradientUnits="userSpaceOnUse">
<stop stop-color="white"/>
<stop offset="1" stop-color="white" stop-opacity="0"/>
</linearGradient>
<linearGradient id="paint6_linear_564_1774" x1="117.993" y1="30.0495" x2="54.2192" y2="151.459" gradientUnits="userSpaceOnUse">
<stop stop-color="white"/>
<stop offset="1" stop-color="white" stop-opacity="0"/>
</linearGradient>
<linearGradient id="paint7_linear_564_1774" x1="135.785" y1="22.2643" x2="114.31" y2="35.4183" gradientUnits="userSpaceOnUse">
<stop stop-color="white"/>
<stop offset="1" stop-color="white" stop-opacity="0"/>
</linearGradient>
<linearGradient id="paint8_linear_564_1774" x1="118.187" y1="303.655" x2="139.661" y2="290.501" gradientUnits="userSpaceOnUse">
<stop stop-color="white"/>
<stop offset="1" stop-color="white" stop-opacity="0"/>
</linearGradient>
</defs>
</svg>
