<svg width="111" height="111" viewBox="0 0 111 111" fill="none" xmlns="http://www.w3.org/2000/svg">
<path d="M36.9995 106.375C39.5538 106.375 41.6245 104.304 41.6245 101.75C41.6245 99.1956 39.5538 97.1249 36.9995 97.1249C34.4452 97.1249 32.3745 99.1956 32.3745 101.75C32.3745 104.304 34.4452 106.375 36.9995 106.375Z" fill="#F8F9F9"/>
<path d="M55.4995 99.4374C58.0538 99.4374 60.1245 97.3667 60.1245 94.8124C60.1245 92.2581 58.0538 90.1874 55.4995 90.1874C52.9452 90.1874 50.8745 92.2581 50.8745 94.8124C50.8745 97.3667 52.9452 99.4374 55.4995 99.4374Z" fill="#BEC6C6"/>
<path d="M73.9973 106.375C76.5516 106.375 78.6223 104.304 78.6223 101.75C78.6223 99.1956 76.5516 97.1249 73.9973 97.1249C71.443 97.1249 69.3723 99.1956 69.3723 101.75C69.3723 104.304 71.443 106.375 73.9973 106.375Z" fill="#F8F9F9"/>
<path d="M104.062 55.4998C104.062 60.4063 102.113 65.1119 98.6439 68.5813C95.1745 72.0507 90.469 73.9998 85.5625 73.9998H30.0625C24.6058 74.0009 19.3246 72.0725 15.1526 68.5554C10.9806 65.0384 8.18673 60.1593 7.26498 54.7811C6.34324 49.4029 7.35302 43.872 10.1158 39.1664C12.8785 34.4609 17.2162 30.8839 22.3618 29.0679C24.7483 21.2508 29.8185 14.5275 36.6782 10.0837C43.5379 5.6399 51.7464 3.76107 59.8561 4.77859C67.9658 5.7961 75.4557 9.64459 81.0049 15.6453C86.5541 21.646 89.8061 29.4136 90.1875 37.5779C94.1601 38.6037 97.6791 40.921 100.191 44.1653C102.703 47.4096 104.065 51.3968 104.062 55.4998Z" fill="#F8F9F9"/>
<path d="M64.7495 60.125C64.1362 60.125 63.548 59.8814 63.1143 59.4477C62.6806 59.014 62.437 58.4258 62.437 57.8125V48.5625C62.437 46.7226 61.7061 44.958 60.4051 43.6569C59.104 42.3559 57.3394 41.625 55.4995 41.625C53.6596 41.625 51.895 42.3559 50.594 43.6569C49.2929 44.958 48.562 46.7226 48.562 48.5625V57.8125C48.562 58.4258 48.3184 59.014 47.8847 59.4477C47.451 59.8814 46.8628 60.125 46.2495 60.125C45.6362 60.125 45.048 59.8814 44.6143 59.4477C44.1806 59.014 43.937 58.4258 43.937 57.8125V48.5625C43.937 45.4959 45.1552 42.555 47.3236 40.3866C49.492 38.2182 52.4329 37 55.4995 37C58.5661 37 61.507 38.2182 63.6754 40.3866C65.8438 42.555 67.062 45.4959 67.062 48.5625V57.8125C67.062 58.4258 66.8184 59.014 66.3847 59.4477C65.951 59.8814 65.3628 60.125 64.7495 60.125Z" fill="#BEC6C6"/>
<path d="M57.8098 88.2913V80.9375C57.8098 80.3242 57.5662 79.736 57.1325 79.3023C56.6988 78.8686 56.1106 78.625 55.4973 78.625C54.884 78.625 54.2958 78.8686 53.8621 79.3023C53.4285 79.736 53.1848 80.3242 53.1848 80.9375V88.2913C51.6419 88.8368 50.3415 89.9102 49.5134 91.3217C48.6854 92.7333 48.383 94.3922 48.6597 96.0051C48.9365 97.6181 49.7745 99.0813 51.0257 100.136C52.277 101.191 53.8608 101.769 55.4973 101.769C57.1339 101.769 58.7177 101.191 59.9689 100.136C61.2201 99.0813 62.0582 97.6181 62.3349 96.0051C62.6117 94.3922 62.3093 92.7333 61.4812 91.3217C60.6532 89.9102 59.3528 88.8368 57.8098 88.2913ZM55.4973 97.125C55.04 97.125 54.5929 96.9894 54.2126 96.7353C53.8323 96.4812 53.5359 96.12 53.3609 95.6975C53.1858 95.2749 53.14 94.8099 53.2293 94.3614C53.3185 93.9128 53.5387 93.5007 53.8621 93.1773C54.1856 92.8539 54.5976 92.6337 55.0462 92.5444C55.4948 92.4552 55.9597 92.501 56.3823 92.676C56.8048 92.8511 57.166 93.1475 57.4201 93.5278C57.6742 93.908 57.8098 94.3551 57.8098 94.8125C57.8098 95.4258 57.5662 96.014 57.1325 96.4477C56.6988 96.8814 56.1106 97.125 55.4973 97.125Z" fill="#414141"/>
<path d="M83.2492 76.3125H85.5616C90.4863 76.3129 95.2516 74.5671 99.0104 71.3853C102.769 68.2035 105.278 63.7919 106.091 58.9348C106.903 54.0777 105.968 49.0897 103.449 44.8576C100.931 40.6254 96.9938 37.4234 92.3373 35.8206C91.5352 27.4039 87.8748 19.5158 81.9652 13.4692C76.0557 7.42267 68.2535 3.58239 59.8575 2.58762C51.4614 1.59285 42.9779 3.5036 35.819 8.00181C28.6601 12.5 23.2577 19.3144 20.511 27.3106C15.1759 29.4217 10.7113 33.2745 7.84208 38.2432C4.9729 43.2119 3.86778 49.0046 4.70619 54.6806C5.5446 60.3567 8.2773 65.5825 12.4605 69.5095C16.6436 73.4365 22.0315 75.8339 27.7492 76.3125V85.5625C27.7511 85.9433 27.8472 86.3178 28.0287 86.6527C28.2102 86.9875 28.4717 87.2724 28.7898 87.4818L34.6867 91.4362V95.2287C33.1437 95.7742 31.8433 96.8476 31.0153 98.2592C30.1872 99.6708 29.8848 101.33 30.1616 102.943C30.4383 104.556 31.2764 106.019 32.5276 107.074C33.7788 108.128 35.3626 108.707 36.9992 108.707C38.6357 108.707 40.2195 108.128 41.4707 107.074C42.722 106.019 43.56 104.556 43.8368 102.943C44.1135 101.33 43.8111 99.6708 42.9831 98.2592C42.155 96.8476 40.8546 95.7742 39.3117 95.2287V90.1875C39.3097 89.8066 39.2137 89.4321 39.0321 89.0972C38.8506 88.7624 38.5891 88.4776 38.271 88.2681L32.3742 84.3137V76.3125H78.6242V84.3137L72.7273 88.2681C72.4092 88.4776 72.1477 88.7624 71.9662 89.0972C71.7847 89.4321 71.6886 89.8066 71.6867 90.1875V95.2287C70.1437 95.7742 68.8433 96.8476 68.0153 98.2592C67.1872 99.6708 66.8848 101.33 67.1616 102.943C67.4383 104.556 68.2763 106.019 69.5276 107.074C70.7788 108.128 72.3626 108.707 73.9992 108.707C75.6357 108.707 77.2195 108.128 78.4707 107.074C79.722 106.019 80.56 104.556 80.8367 102.943C81.1135 101.33 80.8111 99.6708 79.983 98.2592C79.155 96.8476 77.8546 95.7742 76.3117 95.2287V91.4362L82.2085 87.4818C82.5266 87.2724 82.7881 86.9875 82.9696 86.6527C83.1512 86.3178 83.2472 85.9433 83.2492 85.5625V76.3125ZM36.9992 104.062C36.5418 104.062 36.0947 103.927 35.7144 103.673C35.3341 103.419 35.0377 103.057 34.8627 102.635C34.6877 102.212 34.6419 101.747 34.7311 101.299C34.8203 100.85 35.0406 100.438 35.364 100.115C35.6874 99.7914 36.0994 99.5711 36.548 99.4819C36.9966 99.3927 37.4616 99.4385 37.8841 99.6135C38.3067 99.7885 38.6678 100.085 38.9219 100.465C39.176 100.845 39.3117 101.293 39.3117 101.75C39.3117 102.363 39.068 102.951 38.6343 103.385C38.2007 103.819 37.6125 104.062 36.9992 104.062ZM9.24916 50.875C9.24691 46.5692 10.5802 42.3687 13.0652 38.8524C15.5502 35.3361 19.0646 32.6771 23.1242 31.2418C23.4613 31.1228 23.7662 30.9271 24.015 30.6703C24.2638 30.4135 24.4496 30.1026 24.5579 29.7618C26.7783 22.458 31.5082 16.1737 37.9123 12.0187C44.3165 7.86379 51.9828 6.10552 59.5575 7.05444C67.1322 8.00335 74.1279 11.5984 79.3092 17.2047C84.4905 22.811 87.5241 30.0678 87.8742 37.6937C87.8981 38.1871 88.0794 38.6598 88.3915 39.0426C88.7036 39.4254 89.1301 39.6983 89.6085 39.8212C93.4281 40.8021 96.7583 43.1435 98.9737 46.4059C101.189 49.6683 102.138 53.6272 101.641 57.5393C101.144 61.4514 99.2361 65.0476 96.2755 67.6527C93.3149 70.2577 89.5052 71.6925 85.5616 71.6874H30.0617C24.5418 71.6874 19.2481 69.4947 15.345 65.5916C11.4419 61.6885 9.24916 56.3948 9.24916 50.875ZM73.9992 104.062C73.5418 104.062 73.0947 103.927 72.7144 103.673C72.3341 103.419 72.0377 103.057 71.8627 102.635C71.6877 102.212 71.6419 101.747 71.7311 101.299C71.8203 100.85 72.0406 100.438 72.364 100.115C72.6874 99.7914 73.0994 99.5711 73.548 99.4819C73.9966 99.3927 74.4616 99.4385 74.8841 99.6135C75.3067 99.7885 75.6678 100.085 75.9219 100.465C76.176 100.845 76.3117 101.293 76.3117 101.75C76.3117 102.363 76.068 102.951 75.6343 103.385C75.2007 103.819 74.6125 104.062 73.9992 104.062Z" fill="#414141"/>
<path d="M67.062 55.4999H43.937C41.3827 55.4999 39.312 57.5706 39.312 60.1249V78.6249C39.312 81.1792 41.3827 83.2499 43.937 83.2499H67.062C69.6163 83.2499 71.687 81.1792 71.687 78.6249V60.1249C71.687 57.5706 69.6163 55.4999 67.062 55.4999Z" fill="#BEC6C6"/>
<path d="M55.4999 62.4374C54.4906 62.4477 53.5123 62.7879 52.7144 63.4061C51.9165 64.0244 51.3427 64.8867 51.0807 65.8615C50.8186 66.8363 50.8827 67.87 51.2631 68.805C51.6435 69.74 52.3193 70.5249 53.1874 71.0399V73.9999C53.1874 74.6132 53.4311 75.2014 53.8647 75.6351C54.2984 76.0687 54.8866 76.3124 55.4999 76.3124C56.1132 76.3124 56.7014 76.0687 57.1351 75.6351C57.5688 75.2014 57.8124 74.6132 57.8124 73.9999V71.0399C58.6806 70.5249 59.3564 69.74 59.7368 68.805C60.1171 67.87 60.1812 66.8363 59.9192 65.8615C59.6571 64.8867 59.0834 64.0244 58.2854 63.4061C57.4875 62.7879 56.5093 62.4477 55.4999 62.4374Z" fill="#F8F9F9"/>
<path d="M35.8439 25.4375C35.4083 25.4346 34.9823 25.3087 34.6151 25.0744C34.2478 24.84 33.9543 24.5067 33.7682 24.1127C33.5821 23.7188 33.5111 23.2804 33.5633 22.8479C33.6155 22.4154 33.7888 22.0064 34.0633 21.6681C37.6407 17.2855 42.4879 14.1188 47.9383 12.6031C48.5103 12.4872 49.105 12.5918 49.603 12.8961C50.1011 13.2003 50.4657 13.6816 50.6237 14.2434C50.7817 14.8052 50.7215 15.406 50.455 15.9253C50.1885 16.4445 49.7356 16.8438 49.1871 17.0431C44.6447 18.2968 40.6042 20.9312 37.6245 24.5818C37.4094 24.8471 37.1381 25.0614 36.8302 25.2094C36.5223 25.3573 36.1855 25.4352 35.8439 25.4375Z" fill="#BEC6C6"/>
</svg>
