<svg width="48" height="48" viewBox="0 0 48 48" fill="none" xmlns="http://www.w3.org/2000/svg">
<path d="M33 13L31.42 4.3C31.3027 3.65382 30.962 3.06942 30.4575 2.64898C29.953 2.22854 29.3167 1.99883 28.66 2C27.35 2 26.77 3 24.43 3H23.57C22.5289 3.00545 21.5012 2.76565 20.57 2.3C20.1817 2.10701 19.754 2.00682 19.3204 2.00732C18.8868 2.00783 18.4593 2.10902 18.0715 2.30292C17.6837 2.49683 17.3462 2.77814 17.0856 3.1247C16.8251 3.47126 16.6486 3.8736 16.57 4.3L15 13H33Z" fill="#BEC6C6"/>
<path d="M31 13V18.68C31.001 20.2295 30.5135 21.74 29.607 22.9966C28.7004 24.2533 27.4208 25.1922 25.95 25.68C21.63 27.12 17 23.45 17 18.68V13H31Z" fill="#F8F9F9"/>
<path d="M41 33.43V43C41 43.7956 40.6839 44.5587 40.1213 45.1213C39.5587 45.6839 38.7956 46 38 46H10C9.20435 46 8.44129 45.6839 7.87868 45.1213C7.31607 44.5587 7 43.7956 7 43V33.43C7.00077 32.4754 7.3429 31.5525 7.9646 30.8281C8.5863 30.1038 9.44657 29.6256 10.39 29.48L20 28L22.2 29.65C22.7193 30.0395 23.3509 30.25 24 30.25C24.6491 30.25 25.2807 30.0395 25.8 29.65L28 28L37.61 29.48C38.5534 29.6256 39.4137 30.1038 40.0354 30.8281C40.6571 31.5525 40.9992 32.4754 41 33.43Z" fill="#F8F9F9"/>
<path d="M28 24.62V28L25.8 29.65C25.2807 30.0395 24.6491 30.25 24 30.25C23.3509 30.25 22.7193 30.0395 22.2 29.65L20 28V24.62C21.1426 25.512 22.5505 25.9965 24 25.9965C25.4495 25.9965 26.8574 25.512 28 24.62Z" fill="#F8F9F9"/>
<path d="M17 13V18H15.5C14.837 18 14.2011 17.7366 13.7322 17.2678C13.2634 16.7989 13 16.163 13 15.5C13 14.837 13.2634 14.2011 13.7322 13.7322C14.2011 13.2634 14.837 13 15.5 13H17Z" fill="#F8F9F9"/>
<path d="M35 15.5C35 16.163 34.7366 16.7989 34.2678 17.2678C33.7989 17.7366 33.163 18 32.5 18H31V13H32.5C32.8287 12.9987 33.1544 13.0624 33.4583 13.1876C33.7622 13.3128 34.0383 13.4969 34.2707 13.7293C34.5031 13.9617 34.6872 14.2378 34.8124 14.5417C34.9376 14.8456 35.0013 15.1713 35 15.5Z" fill="#F8F9F9"/>
<path d="M18 14V18H23L24 17L25 18H30V14H18Z" fill="#BEC6C6"/>
<path d="M37.76 28.49L29 27.14V25.08C29.8965 24.3319 30.6265 23.4045 31.1432 22.3574C31.6598 21.3103 31.9517 20.1666 32 19H32.53C33.1204 19.0006 33.7013 18.8514 34.2184 18.5664C34.7354 18.2814 35.1717 17.8698 35.4864 17.3703C35.8011 16.8708 35.984 16.2995 36.0178 15.7101C36.0517 15.1207 35.9354 14.5323 35.68 14H36C36.2652 14 36.5196 13.8946 36.7071 13.7071C36.8946 13.5196 37 13.2652 37 13C37 12.7348 36.8946 12.4804 36.7071 12.2929C36.5196 12.1054 36.2652 12 36 12H33.83L32.4 4.12C32.2407 3.24426 31.7791 2.45223 31.0956 1.88204C30.4121 1.31185 29.5501 0.999687 28.66 1C27 1 26.61 2 24.43 2C23.2534 2.11414 22.068 1.90677 21 1.4C20.4736 1.14579 19.8958 1.01611 19.3113 1.02099C18.7268 1.02587 18.1512 1.16518 17.6291 1.42815C17.1071 1.69111 16.6525 2.07067 16.3007 2.53745C15.9488 3.00423 15.7091 3.54572 15.6 4.12L14.17 12H12C11.7348 12 11.4804 12.1054 11.2929 12.2929C11.1054 12.4804 11 12.7348 11 13C11 13.2652 11.1054 13.5196 11.2929 13.7071C11.4804 13.8946 11.7348 14 12 14H12.35C12.0946 14.5323 11.9783 15.1207 12.0122 15.7101C12.046 16.2995 12.2289 16.8708 12.5436 17.3703C12.8583 17.8698 13.2946 18.2814 13.8116 18.5664C14.3287 18.8514 14.9096 19.0006 15.5 19H16C16.0483 20.1666 16.3402 21.3103 16.8568 22.3574C17.3735 23.4045 18.1035 24.3319 19 25.08V27.14L10.24 28.49C9.05983 28.6715 7.98357 29.2693 7.20589 30.1754C6.42821 31.0815 6.00045 32.236 6 33.43V43C6 44.0609 6.42143 45.0783 7.17157 45.8284C7.92172 46.5786 8.93913 47 10 47H15C15.2652 47 15.5196 46.8946 15.7071 46.7071C15.8946 46.5196 16 46.2652 16 46C16 45.7348 15.8946 45.4804 15.7071 45.2929C15.5196 45.1054 15.2652 45 15 45H10C9.46957 45 8.96086 44.7893 8.58579 44.4142C8.21071 44.0391 8 43.5304 8 43V33.43C7.99147 32.708 8.24363 32.0071 8.71021 31.456C9.17679 30.905 9.82647 30.5407 10.54 30.43L19.74 29.01C21.52 30.35 22.34 31.2 24 31.2C25.66 31.2 26.52 30.32 28.26 29.01L37.46 30.43C38.1735 30.5407 38.8232 30.905 39.2898 31.456C39.7564 32.0071 40.0085 32.708 40 33.43V43C40 43.5304 39.7893 44.0391 39.4142 44.4142C39.0391 44.7893 38.5304 45 38 45H33C32.7348 45 32.4804 45.1054 32.2929 45.2929C32.1054 45.4804 32 45.7348 32 46C32 46.2652 32.1054 46.5196 32.2929 46.7071C32.4804 46.8946 32.7348 47 33 47H38C39.0609 47 40.0783 46.5786 40.8284 45.8284C41.5786 45.0783 42 44.0609 42 43V33.43C41.9995 32.236 41.5718 31.0815 40.7941 30.1754C40.0164 29.2693 38.9402 28.6715 37.76 28.49ZM32.5 17H32V14H32.5C32.8978 14 33.2794 14.158 33.5607 14.4393C33.842 14.7206 34 15.1022 34 15.5C34 15.8978 33.842 16.2794 33.5607 16.5607C33.2794 16.842 32.8978 17 32.5 17ZM17.57 4.48C17.62 4.2057 17.7331 3.94677 17.9002 3.72362C18.0674 3.50048 18.2841 3.31922 18.5333 3.19414C18.7825 3.06906 19.0574 3.00358 19.3362 3.00286C19.615 3.00214 19.8902 3.06621 20.14 3.19C21.4749 3.82934 22.9538 4.10858 24.43 4C25.6205 3.99808 26.7944 3.72086 27.86 3.19C28.1098 3.06621 28.385 3.00214 28.6638 3.00286C28.9426 3.00358 29.2175 3.06906 29.4667 3.19414C29.7159 3.31922 29.9326 3.50048 30.0998 3.72362C30.2669 3.94677 30.38 4.2057 30.43 4.48L31.8 12H16.2L17.57 4.48ZM14 15.5C14 15.1022 14.158 14.7206 14.4393 14.4393C14.7206 14.158 15.1022 14 15.5 14H16V17H15.5C15.1022 17 14.7206 16.842 14.4393 16.5607C14.158 16.2794 14 15.8978 14 15.5ZM18 18.68V14H30V18.68C29.9989 20.0195 29.5763 21.3247 28.7919 22.4106C28.0076 23.4965 26.9013 24.308 25.63 24.73C22.11 25.91 18 22.93 18 18.68ZM25.2 28.85C24.8538 29.1096 24.4327 29.25 24 29.25C23.5673 29.25 23.1462 29.1096 22.8 28.85L21 27.5V26.32C21.237 26.4377 21.4807 26.5413 21.73 26.63C23.2036 27.1203 24.7964 27.1203 26.27 26.63C26.5193 26.5413 26.763 26.4377 27 26.32V27.5L25.2 28.85Z" fill="#414141"/>
<path d="M33.64 33H14.36C13.9212 32.9941 13.4864 33.0845 13.0864 33.265C12.6863 33.4454 12.3307 33.7113 12.0447 34.0441C11.7586 34.3769 11.549 34.7684 11.4307 35.191C11.3124 35.6136 11.2883 36.057 11.36 36.49L13 46.16C13.0383 46.3966 13.1604 46.6116 13.3439 46.7658C13.5275 46.92 13.7603 47.0031 14 47H34C34.2397 47.0031 34.4725 46.92 34.6561 46.7658C34.8396 46.6116 34.9617 46.3966 35 46.16L36.61 36.49C36.6813 36.0596 36.6578 35.6188 36.5412 35.1983C36.4246 34.7779 36.2177 34.388 35.935 34.0557C35.6522 33.7234 35.3004 33.4568 34.904 33.2745C34.5077 33.0922 34.0763 32.9985 33.64 33Z" fill="#BEC6C6"/>
<path d="M28 40C27.9099 38.9694 27.4595 38.0035 26.728 37.272C25.9965 36.5405 25.0306 36.0901 24 36C22.9694 36.0901 22.0035 36.5405 21.272 37.272C20.5405 38.0035 20.0901 38.9694 20 40C20.0095 40.3864 20.104 40.7659 20.2769 41.1116C20.4497 41.4572 20.6966 41.7606 21 42V43C21 43.2652 21.1054 43.5196 21.2929 43.7071C21.4804 43.8946 21.7348 44 22 44H26C26.2652 44 26.5196 43.8946 26.7071 43.7071C26.8946 43.5196 27 43.2652 27 43V42C27.3034 41.7606 27.5503 41.4572 27.7231 41.1116C27.896 40.7659 27.9905 40.3864 28 40Z" fill="#F8F9F9"/>
<path d="M23 41C23.5523 41 24 40.5523 24 40C24 39.4477 23.5523 39 23 39C22.4477 39 22 39.4477 22 40C22 40.5523 22.4477 41 23 41Z" fill="#BEC6C6"/>
<path d="M25 41C25.5523 41 26 40.5523 26 40C26 39.4477 25.5523 39 25 39C24.4477 39 24 39.4477 24 40C24 40.5523 24.4477 41 25 41Z" fill="#BEC6C6"/>
<path d="M25.61 22.58C25.0427 22.5676 24.4882 22.4092 24 22.12L23.71 22.26C21.61 23.26 19.11 21.47 20.29 20.26C20.383 20.1663 20.4936 20.0919 20.6154 20.0411C20.7373 19.9903 20.868 19.9642 21 19.9642C21.132 19.9642 21.2627 19.9903 21.3846 20.0411C21.5064 20.0919 21.617 20.1663 21.71 20.26C21.8509 20.4056 22.0351 20.5018 22.2351 20.5343C22.4351 20.5667 22.6403 20.5336 22.82 20.44C24.06 19.82 23.87 19.79 25.18 20.44C25.3597 20.5336 25.5649 20.5667 25.7649 20.5343C25.9649 20.5018 26.1491 20.4056 26.29 20.26C26.4783 20.0717 26.7337 19.9659 27 19.9659C27.2663 19.9659 27.5217 20.0717 27.71 20.26C27.8983 20.4483 28.0041 20.7037 28.0041 20.97C28.0041 21.2363 27.8983 21.4917 27.71 21.68C27.1561 22.2452 26.4013 22.5687 25.61 22.58Z" fill="#BEC6C6"/>
</svg>
