<svg width="1440" height="959" viewBox="0 0 1440 959" fill="none" xmlns="http://www.w3.org/2000/svg">
<path d="M1162.43 159.657L1137.64 222.536M1162.43 159.657L1271.35 145.349M1162.43 159.657L1085.79 115.416M1137.64 222.536L1214.28 266.778M1137.64 222.536L1028.73 236.844M1214.28 266.778L1323.2 252.47M1214.28 266.778L1189.5 329.657M1271.35 145.349L1347.98 189.591M1271.35 145.349L1296.13 82.4702L1219.5 38.229L1110.58 52.537M1347.98 189.591L1323.2 252.47M1347.98 189.591L1456.9 175.283L1533.54 219.524L1508.75 282.403M1323.2 252.47L1399.83 296.711M1399.83 296.711L1508.75 282.403M1399.83 296.711L1375.05 359.59M1508.75 282.403L1585.39 326.644M1028.73 236.844L1003.94 299.723M1028.73 236.844L952.091 192.603M1003.94 299.723L1080.58 343.965M1003.94 299.723L895.022 314.031M1080.58 343.965L1189.5 329.657M1080.58 343.965L1055.79 406.844M1189.5 329.657L1266.13 373.898M1266.13 373.898L1375.05 359.59M1266.13 373.898L1241.35 436.777M1375.05 359.59L1451.68 403.831M766.537 162.67L791.321 99.7904L900.24 85.4826M766.537 162.67L843.172 206.911M766.537 162.67L657.618 176.977L632.834 239.856M843.172 206.911L952.091 192.603M843.172 206.911L818.388 269.79M900.24 85.4826L976.875 129.724M900.24 85.4826L925.023 22.6031L1033.94 8.29519L1110.58 52.537M976.875 129.724L952.091 192.603M976.875 129.724L1085.79 115.416M1085.79 115.416L1110.58 52.537M632.834 239.856L523.914 254.164C514.235 278.72 508.809 292.487 499.13 317.043C529.058 334.321 545.837 344.007 575.765 361.285L684.684 346.977M632.834 239.856L671.151 261.977L709.468 284.098M709.468 284.098L818.388 269.79M709.468 284.098L697.076 315.537L684.684 346.977M818.388 269.79L895.022 314.031M895.022 314.031L870.238 376.91M1451.68 403.831L1560.6 389.524M1451.68 403.831L1426.9 466.711M1585.39 326.644L1560.6 389.524M1585.39 326.644L1694.31 312.337L1770.94 356.578L1746.16 419.457M1560.6 389.524L1637.24 433.765M1055.79 406.844L1132.43 451.085M1055.79 406.844L946.873 421.152M1132.43 451.085L1241.35 436.777M1132.43 451.085L1107.64 513.964M1241.35 436.777L1317.98 481.018M1317.98 481.018L1426.9 466.711M1317.98 481.018L1293.2 543.898M1426.9 466.711L1503.53 510.951M684.684 346.977L761.319 391.218M761.319 391.218L870.238 376.91M761.319 391.218L736.535 454.097L813.17 498.338L922.089 484.031M870.238 376.91L946.873 421.152M946.873 421.152L922.089 484.031M1503.53 510.951L1612.45 496.644M1503.53 510.951L1478.75 573.831M1637.24 433.765L1612.45 496.644M1637.24 433.765L1746.16 419.457M1612.45 496.644L1689.09 540.885M1107.64 513.964L1184.28 558.205M1107.64 513.964L998.724 528.272M1107.64 513.964L998.723 528.271M1184.28 558.205L1293.2 543.898M1184.28 558.205L1159.49 621.085M1293.2 543.898L1369.83 588.138M1293.2 543.898L1369.83 588.139L1345.05 651.018M1369.83 588.138L1478.75 573.831M1369.83 588.138L1345.05 651.018M1478.75 573.831L1555.39 618.072M922.089 484.031L998.724 528.272M998.724 528.272L973.94 591.151L1050.57 635.392M1746.16 419.457L1822.79 463.699L1798.01 526.578L1689.09 540.885M1555.39 618.072L1664.31 603.764L1689.09 540.885M1555.39 618.072L1530.6 680.951L1421.68 695.259L1345.05 651.018M1345.05 651.018L1236.13 665.326M1159.49 621.085L1236.13 665.326M1159.49 621.085L1050.57 635.392M1159.49 621.085L1197.81 643.205L1236.13 665.326M1236.13 665.326L1211.35 728.206L1287.98 772.447L1396.9 758.139L1421.68 695.26L1345.05 651.019L1236.13 665.326ZM1236.13 665.326L1223.74 696.766L1211.35 728.205L1102.43 742.513C1072.5 725.236 1055.72 715.549 1025.79 698.272C1035.47 673.716 1040.9 659.948 1050.57 635.392M511.524 493.735L402.604 508.043C392.925 532.599 387.499 546.366 377.82 570.922C407.748 588.2 424.527 597.886 454.455 615.164L563.374 600.856L575.766 569.416L588.158 537.977L549.841 515.856L511.524 493.735ZM823.605 546.909L714.685 561.216C705.006 585.772 699.58 599.54 689.901 624.096C719.829 641.373 736.608 651.06 766.536 668.337L875.456 654.029L887.848 622.59L900.24 591.15L861.922 569.029L823.605 546.909ZM344.13 118.427L235.21 132.735C225.531 157.291 220.105 171.058 210.426 195.614C240.354 212.892 257.134 222.578 287.061 239.856L395.981 225.548L408.373 194.108L420.765 162.669L382.447 140.548L344.13 118.427ZM654.516 20.4824L545.596 34.7898C535.918 59.3458 530.491 73.1133 520.813 97.6693C550.741 114.947 567.52 124.633 597.448 141.911L706.367 127.603L718.759 96.1632L731.151 64.7236L692.834 42.603L654.516 20.4824Z" stroke="#142944" stroke-opacity="0.3" stroke-width="2.7671"/>
</svg>
