<svg width="396" height="487" viewBox="0 0 396 487" fill="none" xmlns="http://www.w3.org/2000/svg">
<path opacity="0.07" d="M394.962 244.944C388.088 240.939 383.108 240.831 380.023 244.62C376.938 248.354 375.422 254.687 375.422 263.618V311.737C375.422 320.885 374.556 328.462 372.878 334.47C371.2 340.695 368.331 345.133 364.38 347.732C360.537 350.384 355.341 351.087 348.737 349.842C342.296 348.652 334.231 345.296 324.597 339.721L319.996 337.068V299.18L325.734 302.481C332.608 306.487 337.208 306.974 339.536 304.051C341.972 301.236 343.217 295.337 343.217 286.406V244.024C343.217 232.982 344.299 224.268 346.464 217.827C348.629 211.386 352.905 207.326 359.346 205.486C352.905 196.23 348.629 187.191 346.464 178.314C344.299 169.437 343.271 159.478 343.271 148.436V106.055C343.271 97.1239 342.026 89.8709 339.59 84.1875C337.317 78.6125 332.716 73.8493 325.788 69.8439L320.05 66.5422V28.6533L324.651 31.3055C334.286 36.8806 342.351 42.7804 348.792 49.0592C355.395 55.392 360.591 62.1579 364.434 69.2485C368.44 76.4474 371.254 84.1334 372.932 92.3066C374.61 100.263 375.476 108.869 375.476 117.963V166.082C375.476 175.013 376.992 183.132 380.077 190.385C383.162 197.692 388.142 203.321 395.016 207.272L394.962 244.944Z" fill="url(#paint0_linear_1018_719)"/>
<path opacity="0.07" d="M220.404 105.568C227.278 109.573 232.258 109.681 235.343 105.892C238.428 102.158 239.944 95.8247 239.944 86.8938V38.775C239.944 29.6275 240.81 22.0498 242.488 16.0417C244.165 9.81708 246.926 5.32454 250.769 2.67232C254.774 0.0742311 259.971 -0.629419 266.412 0.561373C273.015 1.80629 281.134 5.21629 290.769 10.7914L295.37 13.4436V51.3324L289.632 48.0307C282.758 44.0253 278.049 43.484 275.613 46.2986C273.34 49.2215 272.149 55.1213 272.149 64.0522V106.434C272.149 117.476 271.067 126.19 268.901 132.631C266.736 139.018 262.46 143.132 256.019 144.972C262.46 154.228 266.736 163.267 268.901 172.144C271.067 181.021 272.095 190.98 272.095 202.022V244.403C272.095 253.334 273.232 260.587 275.559 266.162C277.995 271.845 282.704 276.663 289.578 280.614L295.315 283.916V321.805L290.715 319.152C281.08 313.577 272.961 307.623 266.357 301.291C259.916 295.012 254.72 288.3 250.715 281.101C246.872 274.011 244.111 266.379 242.433 258.151C240.755 250.195 239.889 241.589 239.889 232.495V184.376C239.889 175.445 238.374 167.326 235.289 160.073C232.203 152.766 227.224 147.137 220.35 143.186L220.404 105.568Z" fill="url(#paint1_linear_1018_719)"/>
<path opacity="0.4" d="M373.313 261.183C366.439 257.177 361.46 257.069 358.374 260.858C355.289 264.593 353.774 270.926 353.774 279.857V327.975C353.774 337.123 352.908 344.701 351.23 350.709C349.552 356.933 346.683 361.372 342.732 363.97C338.889 366.622 333.693 367.326 327.089 366.081C320.648 364.89 312.583 361.534 302.948 355.959L298.348 353.307V315.418L304.085 318.72C310.959 322.725 315.56 323.212 317.887 320.289C320.323 317.475 321.568 311.575 321.568 302.644V260.263C321.568 249.221 322.651 240.506 324.816 234.065C326.981 227.624 331.257 223.565 337.698 221.724C331.257 212.469 326.981 203.429 324.816 194.553C322.651 185.676 321.622 175.716 321.622 164.674V122.293C321.622 113.362 320.377 106.109 317.942 100.426C315.668 94.8507 311.067 90.0876 304.139 86.0822L298.402 82.7804V44.8916L303.003 47.5438C312.637 53.1189 320.702 59.0187 327.143 65.2974C333.747 71.6303 338.943 78.3962 342.786 85.4868C346.791 92.6857 349.606 100.372 351.284 108.545C352.962 116.502 353.828 125.108 353.828 134.201V182.32C353.828 191.251 355.343 199.37 358.429 206.623C361.514 213.93 366.493 219.559 373.368 223.51L373.313 261.183Z" fill="url(#paint2_linear_1018_719)"/>
<path opacity="0.4" d="M198.755 121.806C205.629 125.811 210.609 125.92 213.694 122.131C216.78 118.396 218.295 112.063 218.295 103.132V55.0133C218.295 45.8658 219.161 38.288 220.839 32.28C222.517 26.0554 225.277 21.5628 229.121 18.9106C233.126 16.3125 238.322 15.6089 244.763 16.7997C251.367 18.0446 259.486 21.4546 269.12 27.0296L273.721 29.6819V67.5707L267.984 64.269C261.11 60.2636 256.4 59.7223 253.965 62.5369C251.691 65.4598 250.501 71.3596 250.501 80.2905V122.672C250.501 133.714 249.418 142.428 247.253 148.869C245.088 155.256 240.812 159.37 234.371 161.21C240.812 170.466 245.088 179.505 247.253 188.382C249.418 197.259 250.447 207.218 250.447 218.26V260.641C250.447 269.572 251.583 276.825 253.911 282.4C256.346 288.084 261.055 292.901 267.929 296.852L273.667 300.154V338.043L269.066 335.391C259.432 329.816 251.313 323.862 244.709 317.529C238.268 311.25 233.072 304.538 229.066 297.339C225.223 290.249 222.463 282.617 220.785 274.39C219.107 266.433 218.241 257.827 218.241 248.733V200.615C218.241 191.684 216.725 183.565 213.64 176.312C210.555 169.005 205.575 163.375 198.701 159.424L198.755 121.806Z" fill="url(#paint3_linear_1018_719)"/>
<path opacity="0.15" d="M78.5932 6.62402L171.096 60.0473L171.042 281.589L78.5391 228.165L78.5932 6.62402Z" fill="url(#paint4_linear_1018_719)"/>
<path d="M61.2168 40.6699L134.775 83.1596V103.565L61.2168 61.0758V40.6699Z" fill="#F2C94C"/>
<path opacity="0.15" d="M90.0137 129.222L160.703 170.033V201.752L90.0137 160.94V129.222Z" fill="white"/>
<path opacity="0.15" d="M89.959 90.8447L160.757 131.711V139.072L89.959 98.2601V90.8447Z" fill="white"/>
<path opacity="0.15" d="M89.959 105.243L151.177 140.588V147.949L89.959 112.604V105.243Z" fill="white"/>
<path opacity="0.2" d="M78.5918 6.62402L171.095 60.0473V89.763L78.5918 36.3397V6.62402Z" fill="url(#paint5_linear_1018_719)"/>
<path opacity="0.2" d="M101.705 34.9862C101.705 39.4787 99.0523 41.5897 95.8047 39.7494C92.5571 37.8549 89.959 32.7129 89.959 28.2203C89.959 23.7278 92.6112 21.6168 95.8588 23.4572C99.0523 25.3516 101.705 30.4937 101.705 34.9862Z" fill="white"/>
<path opacity="0.15" d="M192.257 212.035L284.76 265.458L284.706 487L192.203 433.577L192.257 212.035Z" fill="url(#paint6_linear_1018_719)"/>
<path d="M227.496 276.5L301.054 318.936V339.287L227.441 296.852L227.496 276.5Z" fill="#E9993F"/>
<path opacity="0.15" d="M203.68 297.557L274.424 338.422V370.087L203.68 329.221V297.557Z" fill="white"/>
<path opacity="0.15" d="M203.57 342.807L274.368 383.672V391.034L203.57 350.222V342.807Z" fill="white"/>
<path opacity="0.15" d="M203.57 356.121L264.788 391.466V398.827L203.57 363.482V356.121Z" fill="white"/>
<path opacity="0.2" d="M192.258 212.035L284.761 265.458V295.174L192.258 241.751V212.035Z" fill="url(#paint7_linear_1018_719)"/>
<path opacity="0.2" d="M215.371 240.452C215.371 244.945 212.718 247.056 209.471 245.215C206.223 243.321 203.625 238.179 203.625 233.686C203.625 229.194 206.277 227.083 209.525 228.923C212.718 230.763 215.371 235.959 215.371 240.452Z" fill="white"/>
<path opacity="0.3" d="M176.237 242.726L15.209 149.79L15.2631 233.741L162.109 318.504L176.345 339.559L176.237 242.726Z" fill="url(#paint8_linear_1018_719)"/>
<path opacity="0.15" d="M134.83 239.261L99.5391 218.909V226.27L134.83 246.622V239.261Z" fill="white"/>
<path opacity="0.15" d="M134.83 254.038L47.4688 203.592V210.953L134.884 261.399L134.83 254.038Z" fill="white"/>
<path opacity="0.15" d="M134.884 268.814L29.3906 207.921V215.282L134.884 276.175V268.814Z" fill="white"/>
<path d="M143.545 251.98C143.545 258.909 147.659 266.865 152.692 269.788C157.726 272.711 161.84 269.463 161.84 262.535C161.84 255.607 157.726 247.65 152.692 244.727C147.604 241.805 143.545 245.052 143.545 251.98Z" fill="#F2994A"/>
<path opacity="0.15" d="M31.1229 90.8455L9.79688 78.5045V71.3057L31.1229 83.6466C32.8549 84.675 35.3989 86.6777 37.564 89.8171C39.8914 93.1729 41.5694 97.3948 41.5694 101.996C41.5694 107.084 40.2703 109.952 37.8346 110.818C35.5072 111.576 32.8008 110.277 31.1229 109.303L22.3543 104.215L22.3002 104.161C21.5424 103.728 20.3516 103.295 19.4315 103.565C18.6737 103.782 17.7535 104.594 17.7535 107.408C17.7535 110.223 18.6196 111.955 19.3773 112.983C20.2975 114.282 21.4883 115.203 22.2461 115.581L22.3543 115.636L49.2013 131.116V138.315L22.5167 122.889C20.6764 121.914 18.0242 119.912 15.7508 116.718C13.261 113.2 11.5289 108.761 11.5289 103.782C11.5289 98.8563 13.261 96.3123 15.6967 95.6087C17.97 94.9591 20.6223 95.9334 22.4626 97.016L31.177 102.05C32.4219 102.753 33.3962 103.078 33.9916 102.862C34.4787 102.699 35.3448 101.996 35.3448 98.3691C35.3448 95.9875 34.587 94.472 33.8292 93.3894C32.9632 92.1987 31.8265 91.2244 31.1229 90.8455Z" fill="white"/>
<path d="M16.1298 79.2625C16.1298 85.433 12.5033 88.3017 8.06491 85.7578C3.6265 83.2138 0 76.1232 0 69.9527C0 63.7822 3.6265 60.9135 8.06491 63.4575C12.5033 66.0556 16.1298 73.1462 16.1298 79.2625Z" fill="#F2C94C"/>
<path d="M58.8896 138.802C58.8896 144.972 55.2631 147.841 50.8247 145.297C46.3863 142.753 42.7598 135.662 42.7598 129.492C42.7598 123.321 46.3863 120.453 50.8247 122.997C55.2631 125.595 58.8896 132.685 58.8896 138.802Z" fill="#F2C94C"/>
<path opacity="0.2" d="M116.428 327.001C119.675 328.896 122.273 333.388 122.273 337.177V353.686L133.207 359.964C136.455 361.859 139.053 366.351 139.053 370.14C139.053 373.875 136.401 375.391 133.207 373.55L122.273 367.272V383.78C122.273 387.515 119.621 389.031 116.428 387.19C113.18 385.296 110.582 380.803 110.582 377.014V360.506L99.6484 354.227C96.4008 352.333 93.8027 347.84 93.8027 344.051C93.8027 340.316 96.4549 338.801 99.6484 340.641L110.582 346.92V330.411C110.582 326.622 113.18 325.107 116.428 327.001Z" fill="url(#paint9_linear_1018_719)"/>
<defs>
<linearGradient id="paint0_linear_1018_719" x1="429.015" y1="39.597" x2="295.522" y2="270.961" gradientUnits="userSpaceOnUse">
<stop stop-color="white"/>
<stop offset="1" stop-color="white" stop-opacity="0"/>
</linearGradient>
<linearGradient id="paint1_linear_1018_719" x1="364.829" y1="1.56099" x2="231.335" y2="232.925" gradientUnits="userSpaceOnUse">
<stop stop-color="white"/>
<stop offset="1" stop-color="white" stop-opacity="0"/>
</linearGradient>
<linearGradient id="paint2_linear_1018_719" x1="407.367" y1="55.8353" x2="273.873" y2="287.2" gradientUnits="userSpaceOnUse">
<stop stop-color="white"/>
<stop offset="1" stop-color="white" stop-opacity="0"/>
</linearGradient>
<linearGradient id="paint3_linear_1018_719" x1="343.18" y1="17.7992" x2="209.687" y2="249.164" gradientUnits="userSpaceOnUse">
<stop stop-color="white"/>
<stop offset="1" stop-color="white" stop-opacity="0"/>
</linearGradient>
<linearGradient id="paint4_linear_1018_719" x1="172.774" y1="60.9963" x2="84.4024" y2="214.101" gradientUnits="userSpaceOnUse">
<stop stop-color="white"/>
<stop offset="1" stop-color="white" stop-opacity="0"/>
</linearGradient>
<linearGradient id="paint5_linear_1018_719" x1="110.33" y1="7.07636" x2="138.483" y2="86.9013" gradientUnits="userSpaceOnUse">
<stop stop-color="white"/>
<stop offset="1" stop-color="white" stop-opacity="0"/>
</linearGradient>
<linearGradient id="paint6_linear_1018_719" x1="286.434" y1="266.421" x2="198.062" y2="419.526" gradientUnits="userSpaceOnUse">
<stop stop-color="white"/>
<stop offset="1" stop-color="white" stop-opacity="0"/>
</linearGradient>
<linearGradient id="paint7_linear_1018_719" x1="223.992" y1="212.501" x2="252.145" y2="292.326" gradientUnits="userSpaceOnUse">
<stop stop-color="white"/>
<stop offset="1" stop-color="white" stop-opacity="0"/>
</linearGradient>
<linearGradient id="paint8_linear_1018_719" x1="141.126" y1="209.131" x2="57.9591" y2="274.247" gradientUnits="userSpaceOnUse">
<stop stop-color="white"/>
<stop offset="1" stop-color="white" stop-opacity="0"/>
</linearGradient>
<linearGradient id="paint9_linear_1018_719" x1="127.718" y1="348.09" x2="99.3709" y2="370.447" gradientUnits="userSpaceOnUse">
<stop stop-color="white"/>
<stop offset="1" stop-color="white" stop-opacity="0"/>
</linearGradient>
</defs>
</svg>
