<svg width="110" height="110" viewBox="0 0 110 110" fill="none" xmlns="http://www.w3.org/2000/svg">
<path d="M105.417 64.1666V77.9166C105.417 79.1322 104.934 80.298 104.074 81.1575C103.215 82.0171 102.049 82.5 100.833 82.5H9.16683C7.95125 82.5 6.78546 82.0171 5.92592 81.1575C5.06638 80.298 4.5835 79.1322 4.5835 77.9166V64.1666H105.417Z" fill="#BEC6C6"/>
<path d="M105.417 13.75V64.1666H4.5835V13.75C4.5835 12.5344 5.06638 11.3686 5.92592 10.5091C6.78546 9.64951 7.95125 9.16663 9.16683 9.16663H100.833C102.049 9.16663 103.215 9.64951 104.074 10.5091C104.934 11.3686 105.417 12.5344 105.417 13.75Z" fill="#F8F9F9"/>
<path d="M75.6255 100.833H34.3755C36.5557 98.6554 38.2851 96.0689 39.4648 93.2219C40.6445 90.375 41.2513 87.3234 41.2505 84.2417V82.5H68.7505V84.2417C68.7539 90.4645 71.2266 96.4318 75.6255 100.833Z" fill="#BEC6C6"/>
<path d="M32.0838 38.9583C34.6151 38.9583 36.6672 36.9063 36.6672 34.375C36.6672 31.8437 34.6151 29.7916 32.0838 29.7916C29.5525 29.7916 27.5005 31.8437 27.5005 34.375C27.5005 36.9063 29.5525 38.9583 32.0838 38.9583Z" fill="#BEC6C6"/>
<path d="M32.0838 18.3334C28.4578 18.3334 24.9133 19.4086 21.8984 21.4231C18.8835 23.4376 16.5336 26.3009 15.146 29.6508C13.7584 33.0008 13.3954 36.687 14.1028 40.2434C14.8102 43.7997 16.5562 47.0664 19.1202 49.6303C21.6842 52.1943 24.9509 53.9404 28.5072 54.6478C32.0635 55.3552 35.7497 54.9921 39.0997 53.6045C42.4497 52.2169 45.3129 49.8671 47.3274 46.8522C49.3419 43.8373 50.4172 40.2927 50.4172 36.6667C50.4172 31.8044 48.4856 27.1412 45.0475 23.7031C41.6093 20.2649 36.9461 18.3334 32.0838 18.3334ZM41.2505 47.0021C40.9068 44.8487 39.8066 42.8883 38.1475 41.473C36.4884 40.0577 34.3791 39.2803 32.1984 39.2803C30.0177 39.2803 27.9084 40.0577 26.2493 41.473C24.5902 42.8883 23.4901 44.8487 23.1463 47.0021C21.0404 45.1603 19.5464 42.7198 18.8639 40.0066C18.1813 37.2933 18.3427 34.4365 19.3265 31.8174C20.3102 29.1983 22.0695 26.9416 24.3695 25.3486C26.6695 23.7556 29.4007 22.9021 32.1984 22.9021C34.9962 22.9021 37.7274 23.7556 40.0273 25.3486C42.3273 26.9416 44.0866 29.1983 45.0704 31.8174C46.0541 34.4365 46.2155 37.2933 45.533 40.0066C44.8504 42.7198 43.3564 45.1603 41.2505 47.0021Z" fill="#BEC6C6"/>
<path d="M75.6255 18.3334H57.2922C56.0265 18.3334 55.0005 19.3594 55.0005 20.625V25.2084C55.0005 26.474 56.0265 27.5 57.2922 27.5H75.6255C76.8911 27.5 77.9172 26.474 77.9172 25.2084V20.625C77.9172 19.3594 76.8911 18.3334 75.6255 18.3334Z" fill="#BEC6C6"/>
<path d="M100.833 6.875H9.1665C7.34314 6.875 5.59446 7.59933 4.30514 8.88864C3.01583 10.178 2.2915 11.9266 2.2915 13.75V77.9167C2.2915 79.74 3.01583 81.4887 4.30514 82.778C5.59446 84.0673 7.34314 84.7917 9.1665 84.7917H38.9582C38.8359 90.2156 36.6184 95.3815 32.7707 99.2062C32.4489 99.5254 32.2289 99.9328 32.1387 100.377C32.0484 100.821 32.0919 101.282 32.2636 101.702C32.4353 102.121 32.7275 102.48 33.1033 102.733C33.4791 102.987 33.9216 103.123 34.3748 103.125H75.6248C76.08 103.128 76.5257 102.995 76.905 102.743C77.2843 102.491 77.5801 102.133 77.7546 101.712C77.9292 101.292 77.9746 100.829 77.8851 100.383C77.7955 99.9363 77.5751 99.5268 77.2519 99.2062C73.3958 95.3852 71.1699 90.2188 71.0415 84.7917H100.833C102.657 84.7917 104.405 84.0673 105.695 82.778C106.984 81.4887 107.708 79.74 107.708 77.9167V13.75C107.708 11.9266 106.984 10.178 105.695 8.88864C104.405 7.59933 102.657 6.875 100.833 6.875ZM6.87484 13.75C6.87484 13.1422 7.11628 12.5593 7.54605 12.1295C7.97582 11.6998 8.55872 11.4583 9.1665 11.4583H100.833C101.441 11.4583 102.024 11.6998 102.454 12.1295C102.883 12.5593 103.125 13.1422 103.125 13.75V61.875H6.87484V13.75ZM70.7894 98.5417H39.2103C41.9438 94.469 43.4474 89.6957 43.5415 84.7917H66.4582C66.5523 89.6957 68.0559 94.469 70.7894 98.5417ZM103.125 77.9167C103.125 78.5245 102.883 79.1073 102.454 79.5371C102.024 79.9669 101.441 80.2083 100.833 80.2083H9.1665C8.55872 80.2083 7.97582 79.9669 7.54605 79.5371C7.11628 79.1073 6.87484 78.5245 6.87484 77.9167V66.4583H103.125V77.9167Z" fill="#414141"/>
<path d="M57.292 75.625H52.7087C52.1009 75.625 51.518 75.3835 51.0882 74.9537C50.6584 74.524 50.417 73.9411 50.417 73.3333C50.417 72.7255 50.6584 72.1426 51.0882 71.7128C51.518 71.2831 52.1009 71.0416 52.7087 71.0416H57.292C57.8998 71.0416 58.4827 71.2831 58.9124 71.7128C59.3422 72.1426 59.5837 72.7255 59.5837 73.3333C59.5837 73.9411 59.3422 74.524 58.9124 74.9537C58.4827 75.3835 57.8998 75.625 57.292 75.625Z" fill="#F8F9F9"/>
<path d="M61.8755 45.8333H57.2922C56.6844 45.8333 56.1015 45.5919 55.6717 45.1621C55.2419 44.7323 55.0005 44.1495 55.0005 43.5417C55.0005 42.9339 55.2419 42.351 55.6717 41.9212C56.1015 41.4914 56.6844 41.25 57.2922 41.25H61.8755C62.4833 41.25 63.0662 41.4914 63.4959 41.9212C63.9257 42.351 64.1672 42.9339 64.1672 43.5417C64.1672 44.1495 63.9257 44.7323 63.4959 45.1621C63.0662 45.5919 62.4833 45.8333 61.8755 45.8333Z" fill="#BEC6C6"/>
<path d="M84.7922 55H57.2922C56.6844 55 56.1015 54.7585 55.6717 54.3287C55.2419 53.899 55.0005 53.3161 55.0005 52.7083C55.0005 52.1005 55.2419 51.5176 55.6717 51.0878C56.1015 50.6581 56.6844 50.4166 57.2922 50.4166H84.7922C85.3999 50.4166 85.9828 50.6581 86.4126 51.0878C86.8424 51.5176 87.0838 52.1005 87.0838 52.7083C87.0838 53.3161 86.8424 53.899 86.4126 54.3287C85.9828 54.7585 85.3999 55 84.7922 55Z" fill="#BEC6C6"/>
<path d="M93.9588 36.6667H57.2922C56.6844 36.6667 56.1015 36.4253 55.6717 35.9955C55.2419 35.5657 55.0005 34.9828 55.0005 34.375C55.0005 33.7673 55.2419 33.1844 55.6717 32.7546C56.1015 32.3248 56.6844 32.0834 57.2922 32.0834H93.9588C94.5666 32.0834 95.1495 32.3248 95.5793 32.7546C96.0091 33.1844 96.2505 33.7673 96.2505 34.375C96.2505 34.9828 96.0091 35.5657 95.5793 35.9955C95.1495 36.4253 94.5666 36.6667 93.9588 36.6667Z" fill="#BEC6C6"/>
<path d="M93.9588 45.8333H71.0422C70.4344 45.8333 69.8515 45.5919 69.4217 45.1621C68.9919 44.7323 68.7505 44.1495 68.7505 43.5417C68.7505 42.9339 68.9919 42.351 69.4217 41.9212C69.8515 41.4914 70.4344 41.25 71.0422 41.25H93.9588C94.5666 41.25 95.1495 41.4914 95.5793 41.9212C96.009 42.351 96.2505 42.9339 96.2505 43.5417C96.2505 44.1495 96.009 44.7323 95.5793 45.1621C95.1495 45.5919 94.5666 45.8333 93.9588 45.8333Z" fill="#BEC6C6"/>
</svg>
