<svg width="369" height="335" viewBox="0 0 369 335" fill="none" xmlns="http://www.w3.org/2000/svg">
<path opacity="0.07" d="M335.374 141.203C335.374 143.022 335.33 144.842 335.197 146.539C354.297 159.758 369 188.096 369 213.038C369 240.204 351.543 253.018 329.999 241.699C329.955 241.659 329.91 241.659 329.866 241.618L194.517 170.592C194.473 170.552 194.428 170.552 194.34 170.511C170.13 157.778 150.497 122.729 150.497 92.2086C150.497 63.6283 167.732 49.1158 189.809 57.888C192.518 38.282 206.955 29.8332 224.368 39.0096C232.719 43.4159 240.403 51.137 246.4 60.4347C255.107 48.6711 269.943 45.6797 286.734 54.4923C313.608 68.5601 335.374 107.408 335.374 141.203Z" fill="url(#paint0_linear_616_631)"/>
<path opacity="0.4" d="M313.164 160.607C313.164 162.426 313.12 164.246 312.986 165.943C332.087 179.162 346.79 207.5 346.79 232.442C346.79 259.608 329.333 272.422 307.789 261.103C307.745 261.063 307.7 261.063 307.656 261.022L172.307 189.996C172.263 189.956 172.218 189.956 172.129 189.915C147.92 177.181 128.286 142.133 128.286 111.613C128.286 83.0322 145.521 68.5197 167.598 77.2919C170.308 57.6859 184.745 49.2371 202.157 58.4135C210.508 62.8198 218.193 70.541 224.19 79.8387C232.896 68.0751 247.733 65.0836 264.524 73.8962C291.398 87.964 313.164 126.812 313.164 160.607Z" fill="url(#paint1_linear_616_631)"/>
<path opacity="0.2" d="M98.8794 195.211L78.2683 184.377V178.031L98.8794 188.864C100.567 189.754 103.01 191.532 105.098 194.281C107.364 197.232 108.963 200.951 108.963 204.994C108.963 209.441 107.719 211.987 105.32 212.715C103.099 213.402 100.479 212.23 98.8349 211.381L90.3507 206.934L90.3062 206.894C89.5955 206.49 88.4406 206.126 87.5078 206.368C86.7526 206.571 85.9086 207.258 85.9086 209.724C85.9086 212.19 86.7526 213.726 87.4633 214.615C88.3517 215.747 89.5067 216.555 90.2174 216.879L90.3062 216.919L116.203 230.542V236.889L90.4395 223.347C88.6627 222.498 86.1307 220.719 83.9097 217.889C81.511 214.817 79.823 210.896 79.8674 206.53C79.8674 202.205 81.511 199.981 83.9097 199.375C86.1307 198.809 88.6627 199.617 90.4395 200.628L98.8349 205.034C100.034 205.681 100.967 205.964 101.545 205.762C101.989 205.641 102.877 205.034 102.877 201.8C102.877 199.739 102.122 198.364 101.456 197.435C100.656 196.383 99.5457 195.575 98.8794 195.211Z" fill="white"/>
<path d="M82.71 182.801C82.71 188.015 79.3341 190.481 75.203 188.339C71.0719 186.156 67.6959 180.173 67.6959 174.918C67.6959 169.703 71.0719 167.237 75.203 169.38C79.3341 171.563 82.71 177.586 82.71 182.801Z" fill="#F2994A"/>
<path d="M126.686 238.991C126.686 244.206 123.31 246.672 119.179 244.529C115.048 242.346 111.672 236.363 111.672 231.108C111.672 225.893 115.048 223.428 119.179 225.57C123.31 227.753 126.686 233.776 126.686 238.991Z" fill="#F2994A"/>
<path opacity="0.07" d="M162.179 104.7L295.396 174.675V238.829L162.134 168.854L162.179 104.7Z" fill="url(#paint2_linear_616_631)"/>
<path opacity="0.3" d="M144.366 112.785L277.583 182.76V246.914L144.366 176.939V112.785Z" fill="url(#paint3_linear_616_631)"/>
<path d="M156.315 150.987C156.315 156.161 159.691 162.103 163.822 164.286C167.953 166.469 171.329 164.044 171.329 158.869C171.329 153.695 167.953 147.753 163.822 145.57C159.691 143.387 156.315 145.812 156.315 150.987Z" fill="#F2994A"/>
<path opacity="0.15" d="M175.105 160.971C175.105 163.357 176.659 166.146 178.614 167.156C180.524 168.167 182.079 167.035 182.079 164.65C182.079 162.265 180.524 159.476 178.57 158.465C176.659 157.455 175.105 158.586 175.105 160.971Z" fill="white"/>
<path opacity="0.15" d="M185.811 166.59C185.811 168.975 187.366 171.765 189.32 172.775C191.23 173.786 192.785 172.654 192.785 170.269C192.785 167.884 191.23 165.095 189.276 164.084C187.365 163.073 185.811 164.205 185.811 166.59Z" fill="white"/>
<path opacity="0.15" d="M243.956 177.505V214.008L238.714 211.26V174.756L243.956 177.505Z" fill="white"/>
<path opacity="0.15" d="M255.417 183.569V220.072L250.175 217.323V180.82L255.417 183.569Z" fill="white"/>
<path opacity="0.15" d="M266.922 189.632V226.136L261.68 223.387V186.883L266.922 189.632Z" fill="white"/>
<path opacity="0.07" d="M162.134 192.381L295.351 262.357V326.511L162.134 256.536V192.381Z" fill="url(#paint4_linear_616_631)"/>
<path opacity="0.3" d="M144.366 200.871L277.583 270.846V335L144.366 265.025V200.871Z" fill="url(#paint5_linear_616_631)"/>
<path d="M156.315 239.072C156.315 244.246 159.691 250.189 163.822 252.372C167.953 254.555 171.329 252.129 171.329 246.955C171.329 241.78 167.953 235.838 163.822 233.655C159.691 231.472 156.315 233.898 156.315 239.072Z" fill="#F2994A"/>
<path opacity="0.15" d="M175.105 249.097C175.105 251.482 176.659 254.272 178.614 255.282C180.524 256.293 182.079 255.161 182.079 252.776C182.079 250.391 180.524 247.602 178.57 246.591C176.659 245.58 175.105 246.672 175.105 249.097Z" fill="white"/>
<path opacity="0.15" d="M185.766 254.716C185.766 257.101 187.32 259.891 189.275 260.901C191.185 261.912 192.74 260.78 192.74 258.395C192.74 256.01 191.185 253.22 189.23 252.21C187.32 251.159 185.766 252.291 185.766 254.716Z" fill="white"/>
<path opacity="0.15" d="M243.956 266.844V303.347L238.714 300.598V264.095L243.956 266.844Z" fill="white"/>
<path opacity="0.15" d="M255.417 272.907V309.411L250.175 306.662V270.158L255.417 272.907Z" fill="white"/>
<path opacity="0.15" d="M266.922 278.971V315.475L261.68 312.726V276.222L266.922 278.971Z" fill="white"/>
<path opacity="0.3" d="M26.0745 17.7465L109.096 61.3648V201.356L26.0745 157.697V17.7465Z" fill="url(#paint6_linear_616_631)"/>
<path d="M77.3359 68.4391C77.3359 75.4326 72.8939 78.7474 67.4302 75.8368C61.9665 72.9262 57.5244 64.9221 57.5244 57.9287C57.5244 50.9352 61.9665 47.6203 67.4302 50.5309C72.8939 53.4415 77.3359 61.4456 77.3359 68.4391Z" fill="#F2C94C"/>
<path d="M67.4306 81.4558C58.5909 76.7666 51.306 81.1729 50.0178 91.2791C49.7957 93.0173 51.2616 95.362 53.0384 96.2917L81.8672 111.613C83.644 112.542 85.1099 111.815 84.8878 109.794C83.5552 98.2725 76.2258 86.1451 67.4306 81.4558Z" fill="#F2C94C"/>
<path opacity="0.15" d="M42.7321 108.54L92.2164 134.533V140.031L42.7321 114.038V108.54Z" fill="white"/>
<path opacity="0.15" d="M47.752 122.083L86.9751 142.659V148.157L47.752 127.58V122.083Z" fill="white"/>
<path d="M57.7465 145.206L0 114.847V130.491L57.7465 160.85V145.206Z" fill="#F2C94C"/>
<path opacity="0.2" d="M126.998 -0.00012207L139.346 22.0718C141.034 25.1036 140.768 28.1355 138.724 28.8631C136.681 29.5908 133.661 27.6908 131.973 24.659L131.839 24.376V48.8734C131.839 51.6627 129.707 52.7946 127.042 51.4202C124.377 50.0053 122.245 46.65 122.245 43.8607V19.3633L122.111 19.4846C120.423 20.7378 117.358 19.4442 115.359 16.574C113.316 13.7039 113.05 10.389 114.737 9.13587L126.998 -0.00012207Z" fill="url(#paint7_linear_616_631)"/>
<path opacity="0.2" d="M126.998 325.904L114.649 303.832C112.961 300.8 113.228 297.768 115.271 297.041C117.314 296.313 120.335 298.213 122.023 301.245L122.156 301.528V277.031C122.156 274.241 124.288 273.109 126.953 274.484C129.619 275.899 131.751 279.254 131.751 282.043V306.541L131.884 306.419C133.572 305.166 136.637 306.46 138.636 309.33C140.679 312.2 140.946 315.515 139.258 316.768L126.998 325.904Z" fill="url(#paint8_linear_616_631)"/>
<defs>
<linearGradient id="paint0_linear_616_631" x1="361.054" y1="64.006" x2="235.901" y2="194.45" gradientUnits="userSpaceOnUse">
<stop stop-color="white"/>
<stop offset="1" stop-color="white" stop-opacity="0"/>
</linearGradient>
<linearGradient id="paint1_linear_616_631" x1="338.839" y1="83.41" x2="213.687" y2="213.854" gradientUnits="userSpaceOnUse">
<stop stop-color="white"/>
<stop offset="1" stop-color="white" stop-opacity="0"/>
</linearGradient>
<linearGradient id="paint2_linear_616_631" x1="226.042" y1="109.83" x2="230.154" y2="223.341" gradientUnits="userSpaceOnUse">
<stop stop-color="white"/>
<stop offset="1" stop-color="white" stop-opacity="0"/>
</linearGradient>
<linearGradient id="paint3_linear_616_631" x1="208.273" y1="117.915" x2="212.384" y2="231.426" gradientUnits="userSpaceOnUse">
<stop stop-color="white"/>
<stop offset="1" stop-color="white" stop-opacity="0"/>
</linearGradient>
<linearGradient id="paint4_linear_616_631" x1="226.032" y1="197.525" x2="230.144" y2="311.036" gradientUnits="userSpaceOnUse">
<stop stop-color="white"/>
<stop offset="1" stop-color="white" stop-opacity="0"/>
</linearGradient>
<linearGradient id="paint5_linear_616_631" x1="208.263" y1="206.014" x2="212.375" y2="319.525" gradientUnits="userSpaceOnUse">
<stop stop-color="white"/>
<stop offset="1" stop-color="white" stop-opacity="0"/>
</linearGradient>
<linearGradient id="paint6_linear_616_631" x1="117.994" y1="30.0499" x2="54.2195" y2="151.46" gradientUnits="userSpaceOnUse">
<stop stop-color="white"/>
<stop offset="1" stop-color="white" stop-opacity="0"/>
</linearGradient>
<linearGradient id="paint7_linear_616_631" x1="135.785" y1="22.2642" x2="114.311" y2="35.4181" gradientUnits="userSpaceOnUse">
<stop stop-color="white"/>
<stop offset="1" stop-color="white" stop-opacity="0"/>
</linearGradient>
<linearGradient id="paint8_linear_616_631" x1="118.187" y1="303.655" x2="139.661" y2="290.501" gradientUnits="userSpaceOnUse">
<stop stop-color="white"/>
<stop offset="1" stop-color="white" stop-opacity="0"/>
</linearGradient>
</defs>
</svg>
