<svg width="396" height="487" viewBox="0 0 396 487" fill="none" xmlns="http://www.w3.org/2000/svg">
<path opacity="0.07" d="M394.963 244.945C388.089 240.939 383.109 240.831 380.024 244.62C376.939 248.355 375.423 254.688 375.423 263.619V311.737C375.423 320.885 374.557 328.463 372.879 334.471C371.201 340.695 368.332 345.134 364.381 347.732C360.538 350.384 355.342 351.088 348.738 349.843C342.297 348.652 334.232 345.296 324.598 339.721L319.997 337.069V299.18L325.735 302.482C332.609 306.487 337.209 306.974 339.537 304.051C341.973 301.237 343.218 295.337 343.218 286.406V244.025C343.218 232.983 344.3 224.268 346.465 217.827C348.63 211.386 352.906 207.327 359.347 205.486C352.906 196.231 348.63 187.191 346.465 178.314C344.3 169.438 343.272 159.478 343.272 148.436V106.055C343.272 97.1241 342.027 89.8711 339.591 84.1878C337.318 78.6127 332.717 73.8495 325.789 69.8441L320.051 66.5424V28.6536L324.652 31.3058C334.287 36.8809 342.351 42.7807 348.793 49.0594C355.396 55.3923 360.592 62.1581 364.435 69.2488C368.441 76.4476 371.255 84.1337 372.933 92.3068C374.611 100.263 375.477 108.87 375.477 117.963V166.082C375.477 175.013 376.993 183.132 380.078 190.385C383.163 197.692 388.143 203.321 395.017 207.272L394.963 244.945Z" fill="url(#paint0_linear_616_557)"/>
<path opacity="0.07" d="M220.404 105.568C227.278 109.573 232.258 109.681 235.343 105.892C238.428 102.158 239.944 95.8247 239.944 86.8938V38.775C239.944 29.6275 240.81 22.0498 242.488 16.0417C244.165 9.81708 246.926 5.32454 250.769 2.67232C254.774 0.0742311 259.971 -0.629419 266.412 0.561373C273.015 1.80629 281.134 5.21629 290.769 10.7914L295.37 13.4436V51.3324L289.632 48.0307C282.758 44.0253 278.049 43.484 275.613 46.2986C273.34 49.2215 272.149 55.1213 272.149 64.0522V106.434C272.149 117.476 271.067 126.19 268.901 132.631C266.736 139.018 262.46 143.132 256.019 144.972C262.46 154.228 266.736 163.267 268.901 172.144C271.067 181.021 272.095 190.98 272.095 202.022V244.403C272.095 253.334 273.232 260.587 275.559 266.162C277.995 271.845 282.704 276.663 289.578 280.614L295.315 283.916V321.805L290.715 319.152C281.08 313.577 272.961 307.623 266.357 301.291C259.916 295.012 254.72 288.3 250.715 281.101C246.872 274.011 244.111 266.379 242.433 258.151C240.755 250.195 239.889 241.589 239.889 232.495V184.376C239.889 175.445 238.374 167.326 235.289 160.073C232.203 152.766 227.224 147.137 220.35 143.186L220.404 105.568Z" fill="url(#paint1_linear_616_557)"/>
<path opacity="0.4" d="M373.314 261.183C366.44 257.178 361.46 257.07 358.375 260.858C355.289 264.593 353.774 270.926 353.774 279.857V327.976C353.774 337.123 352.908 344.701 351.23 350.709C349.552 356.934 346.683 361.372 342.732 363.97C338.889 366.622 333.693 367.326 327.089 366.081C320.648 364.89 312.583 361.535 302.949 355.959L298.348 353.307V315.418L304.085 318.72C310.959 322.726 315.56 323.213 317.888 320.29C320.323 317.475 321.568 311.575 321.568 302.644V260.263C321.568 249.221 322.651 240.507 324.816 234.066C326.981 227.625 331.257 223.565 337.698 221.725C331.257 212.469 326.981 203.43 324.816 194.553C322.651 185.676 321.622 175.717 321.622 164.675V122.294C321.622 113.363 320.378 106.11 317.942 100.426C315.669 94.8512 311.068 90.0881 304.139 86.0827L298.402 82.7809V44.8921L303.003 47.5443C312.637 53.1194 320.702 59.0192 327.143 65.2979C333.747 71.6308 338.943 78.3966 342.786 85.4873C346.791 92.6862 349.606 100.372 351.284 108.545C352.962 116.502 353.828 125.108 353.828 134.202V182.32C353.828 191.251 355.344 199.37 358.429 206.623C361.514 213.93 366.494 219.56 373.368 223.511L373.314 261.183Z" fill="url(#paint2_linear_616_557)"/>
<path opacity="0.4" d="M198.755 121.806C205.629 125.812 210.609 125.92 213.694 122.131C216.779 118.396 218.295 112.063 218.295 103.132V55.0135C218.295 45.8661 219.161 38.2883 220.839 32.2802C222.517 26.0556 225.277 21.5631 229.12 18.9108C233.125 16.3128 238.322 15.6091 244.763 16.7999C251.366 18.0448 259.485 21.4548 269.12 27.0299L273.721 29.6821V67.5709L267.983 64.2692C261.109 60.2638 256.4 59.7225 253.964 62.5371C251.691 65.46 250.5 71.3598 250.5 80.2908V122.672C250.5 133.714 249.418 142.428 247.253 148.87C245.087 155.257 240.811 159.37 234.37 161.211C240.811 170.466 245.087 179.505 247.253 188.382C249.418 197.259 250.446 207.218 250.446 218.26V260.642C250.446 269.573 251.583 276.826 253.91 282.401C256.346 288.084 261.055 292.901 267.929 296.853L273.666 300.154V338.043L269.066 335.391C259.431 329.816 251.312 323.862 244.709 317.529C238.267 311.25 233.071 304.539 229.066 297.34C225.223 290.249 222.462 282.617 220.784 274.39C219.107 266.433 218.241 257.827 218.241 248.734V200.615C218.241 191.684 216.725 183.565 213.64 176.312C210.554 169.005 205.575 163.376 198.701 159.424L198.755 121.806Z" fill="url(#paint3_linear_616_557)"/>
<path opacity="0.15" d="M78.5922 6.62378L171.095 60.0471L171.041 281.589L78.5381 228.165L78.5922 6.62378Z" fill="url(#paint4_linear_616_557)"/>
<path d="M61.2175 40.6698L134.776 83.1594V103.565L61.2175 61.0757V40.6698Z" fill="#F2C94C"/>
<path opacity="0.15" d="M90.0144 129.221L160.704 170.033V201.752L90.0144 160.94V129.221Z" fill="white"/>
<path opacity="0.15" d="M89.958 90.8447L160.756 131.711V139.072L89.958 98.2601V90.8447Z" fill="white"/>
<path opacity="0.15" d="M89.958 105.243L151.176 140.588V147.949L89.958 112.604V105.243Z" fill="white"/>
<path opacity="0.2" d="M78.5923 6.62378L171.095 60.0471V89.7627L78.5923 36.3395V6.62378Z" fill="url(#paint5_linear_616_557)"/>
<path opacity="0.2" d="M101.704 34.9866C101.704 39.4791 99.0513 41.59 95.8037 39.7497C92.5561 37.8553 89.958 32.7132 89.958 28.2207C89.958 23.7282 92.6102 21.6172 95.8578 23.4575C99.0513 25.352 101.704 30.494 101.704 34.9866Z" fill="white"/>
<path opacity="0.15" d="M192.257 212.035L284.76 265.458L284.706 487L192.203 433.577L192.257 212.035Z" fill="url(#paint6_linear_616_557)"/>
<path d="M227.495 276.5L301.054 318.936V339.287L227.441 296.852L227.495 276.5Z" fill="#F2994A"/>
<path opacity="0.15" d="M203.68 297.556L274.424 338.422V370.086L203.68 329.22V297.556Z" fill="white"/>
<path opacity="0.15" d="M203.571 342.806L274.369 383.672V391.033L203.571 350.222V342.806Z" fill="white"/>
<path opacity="0.15" d="M203.571 356.121L264.789 391.466V398.828L203.571 363.483V356.121Z" fill="white"/>
<path opacity="0.2" d="M192.258 212.035L284.76 265.458V295.174L192.258 241.751V212.035Z" fill="url(#paint7_linear_616_557)"/>
<path opacity="0.2" d="M215.371 240.452C215.371 244.945 212.719 247.056 209.471 245.215C206.224 243.321 203.625 238.179 203.625 233.686C203.625 229.194 206.278 227.083 209.525 228.923C212.719 230.763 215.371 235.96 215.371 240.452Z" fill="white"/>
<path opacity="0.3" d="M176.236 242.725L15.2083 149.79L15.2624 233.74L162.109 318.503L176.344 339.559L176.236 242.725Z" fill="url(#paint8_linear_616_557)"/>
<path opacity="0.15" d="M134.83 239.261L99.5388 218.91V226.271L134.83 246.623V239.261Z" fill="white"/>
<path opacity="0.15" d="M134.829 254.038L47.4685 203.592V210.953L134.883 261.399L134.829 254.038Z" fill="white"/>
<path opacity="0.15" d="M134.884 268.814L29.3911 207.921V215.282L134.884 276.175V268.814Z" fill="white"/>
<path d="M143.544 251.981C143.544 258.909 147.658 266.866 152.692 269.788C157.725 272.711 161.839 269.464 161.839 262.535C161.839 255.607 157.725 247.651 152.692 244.728C147.604 241.805 143.544 245.052 143.544 251.981Z" fill="#F2994A"/>
<path opacity="0.15" d="M31.1239 90.8455L9.79785 78.5045V71.3057L31.1239 83.6466C32.8559 84.675 35.3999 86.6777 37.565 89.8171C39.8924 93.1729 41.5704 97.3948 41.5704 101.996C41.5704 107.084 40.2713 109.952 37.8356 110.818C35.5081 111.576 32.8018 110.277 31.1239 109.303L22.3553 104.215L22.3012 104.161C21.5434 103.728 20.3526 103.295 19.4324 103.565C18.6747 103.782 17.7545 104.594 17.7545 107.408C17.7545 110.223 18.6205 111.955 19.3783 112.983C20.2985 114.282 21.4893 115.203 22.247 115.581L22.3553 115.636L49.2022 131.116V138.315L22.5177 122.889C20.6774 121.914 18.0251 119.912 15.7518 116.718C13.262 113.2 11.5299 108.761 11.5299 103.782C11.5299 98.8563 13.262 96.3123 15.6977 95.6087C17.971 94.9591 20.6232 95.9334 22.4636 97.016L31.178 102.05C32.4229 102.753 33.3972 103.078 33.9926 102.862C34.4797 102.699 35.3458 101.996 35.3458 98.3691C35.3458 95.9875 34.588 94.472 33.8302 93.3894C32.9642 92.1987 31.8275 91.2244 31.1239 90.8455Z" fill="white"/>
<path d="M16.1298 79.2625C16.1298 85.433 12.5033 88.3017 8.06491 85.7578C3.6265 83.2138 0 76.1232 0 69.9527C0 63.7822 3.6265 60.9135 8.06491 63.4575C12.5033 66.0556 16.1298 73.1462 16.1298 79.2625Z" fill="#F2C94C"/>
<path d="M58.8903 138.801C58.8903 144.972 55.2638 147.841 50.8254 145.297C46.387 142.753 42.7605 135.662 42.7605 129.492C42.7605 123.321 46.387 120.452 50.8254 122.996C55.2638 125.595 58.8903 132.685 58.8903 138.801Z" fill="#F2C94C"/>
<path opacity="0.2" d="M116.428 327.001C119.676 328.896 122.274 333.388 122.274 337.177V353.686L133.207 359.965C136.455 361.859 139.053 366.352 139.053 370.141C139.053 373.875 136.401 375.391 133.207 373.551L122.274 367.272V383.781C122.274 387.515 119.622 389.031 116.428 387.191C113.18 385.296 110.582 380.804 110.582 377.015V360.506L99.6487 354.227C96.4011 352.333 93.803 347.84 93.803 344.051C93.803 340.317 96.4552 338.801 99.6487 340.641L110.582 346.92V330.412C110.582 326.623 113.18 325.107 116.428 327.001Z" fill="url(#paint9_linear_616_557)"/>
<defs>
<linearGradient id="paint0_linear_616_557" x1="429.016" y1="39.5972" x2="295.523" y2="270.962" gradientUnits="userSpaceOnUse">
<stop stop-color="white"/>
<stop offset="1" stop-color="white" stop-opacity="0"/>
</linearGradient>
<linearGradient id="paint1_linear_616_557" x1="364.829" y1="1.56099" x2="231.335" y2="232.925" gradientUnits="userSpaceOnUse">
<stop stop-color="white"/>
<stop offset="1" stop-color="white" stop-opacity="0"/>
</linearGradient>
<linearGradient id="paint2_linear_616_557" x1="407.367" y1="55.8357" x2="273.874" y2="287.2" gradientUnits="userSpaceOnUse">
<stop stop-color="white"/>
<stop offset="1" stop-color="white" stop-opacity="0"/>
</linearGradient>
<linearGradient id="paint3_linear_616_557" x1="343.18" y1="17.7994" x2="209.686" y2="249.164" gradientUnits="userSpaceOnUse">
<stop stop-color="white"/>
<stop offset="1" stop-color="white" stop-opacity="0"/>
</linearGradient>
<linearGradient id="paint4_linear_616_557" x1="172.773" y1="60.9961" x2="84.4014" y2="214.101" gradientUnits="userSpaceOnUse">
<stop stop-color="white"/>
<stop offset="1" stop-color="white" stop-opacity="0"/>
</linearGradient>
<linearGradient id="paint5_linear_616_557" x1="110.33" y1="7.07612" x2="138.483" y2="86.9011" gradientUnits="userSpaceOnUse">
<stop stop-color="white"/>
<stop offset="1" stop-color="white" stop-opacity="0"/>
</linearGradient>
<linearGradient id="paint6_linear_616_557" x1="286.435" y1="266.421" x2="198.063" y2="419.526" gradientUnits="userSpaceOnUse">
<stop stop-color="white"/>
<stop offset="1" stop-color="white" stop-opacity="0"/>
</linearGradient>
<linearGradient id="paint7_linear_616_557" x1="223.992" y1="212.501" x2="252.145" y2="292.326" gradientUnits="userSpaceOnUse">
<stop stop-color="white"/>
<stop offset="1" stop-color="white" stop-opacity="0"/>
</linearGradient>
<linearGradient id="paint8_linear_616_557" x1="141.125" y1="209.13" x2="57.9584" y2="274.247" gradientUnits="userSpaceOnUse">
<stop stop-color="white"/>
<stop offset="1" stop-color="white" stop-opacity="0"/>
</linearGradient>
<linearGradient id="paint9_linear_616_557" x1="127.718" y1="348.091" x2="99.3711" y2="370.448" gradientUnits="userSpaceOnUse">
<stop stop-color="white"/>
<stop offset="1" stop-color="white" stop-opacity="0"/>
</linearGradient>
</defs>
</svg>
