<svg width="111" height="111" viewBox="0 0 111 111" fill="none" xmlns="http://www.w3.org/2000/svg">
<path d="M95.5294 39.4512C93.5589 45.3936 93.4219 51.7913 95.1363 57.8125C96.6625 63.1081 98.3507 68.08 95.9457 75.2487C93.486 82.6184 89.146 89.2188 83.3546 94.3978C77.5632 99.5768 70.5208 103.155 62.9232 104.779L55.5 106.375L48.0769 104.779C40.4766 103.153 33.4324 99.5713 27.6408 94.388C21.8492 89.2048 17.5107 82.5996 15.0544 75.2256C12.7419 67.9875 14.43 62.7612 15.8638 57.7894C17.5734 51.7754 17.4364 45.3864 15.4707 39.4512C13.4125 33.3462 13.875 29.1838 13.875 18.5L55.5 4.625L97.125 18.5C97.125 29.6462 97.5413 33.485 95.5294 39.4512Z" fill="#BEC6C6"/>
<path d="M49.5338 98.0038C43.1181 96.6178 37.1733 93.5865 32.2837 89.2077C27.3941 84.8289 23.7278 79.2533 21.6451 73.0288C19.8182 67.5944 21.4369 63.5244 22.5238 59.7088C24.6282 52.3552 24.4671 44.5381 22.0613 37.2775C20.5119 32.6525 20.8126 29.6232 20.8126 23.4025L55.5001 11.84L90.1876 23.4025C90.1876 29.3457 90.4651 32.6525 88.9619 37.1388C86.542 44.4028 86.3647 52.227 88.4532 59.5932C89.6326 63.6863 91.1819 67.5482 89.3782 72.9132C87.3063 79.1598 83.6427 84.7588 78.7482 89.1584C73.8538 93.5582 67.8976 96.6067 61.4663 98.0038L55.5001 99.2757L49.5338 98.0038Z" fill="#F8F9F9"/>
<path d="M55.5 57.8125C59.3315 57.8125 62.4375 54.7065 62.4375 50.875C62.4375 47.0435 59.3315 43.9375 55.5 43.9375C51.6685 43.9375 48.5625 47.0435 48.5625 50.875C48.5625 54.7065 51.6685 57.8125 55.5 57.8125Z" fill="#BEC6C6"/>
<path d="M69.375 71.0169C65.5592 74.4298 60.6194 76.3166 55.5 76.3166C50.3806 76.3166 45.4408 74.4298 41.625 71.0169C41.7583 68.3361 42.6662 65.7515 44.2388 63.5763C45.8114 61.4012 47.9812 59.7289 50.4851 58.7621C52.989 57.7952 55.7196 57.5754 58.346 58.1293C60.9723 58.6832 63.3816 59.9869 65.2819 61.8825C67.7542 64.2988 69.2171 67.5635 69.375 71.0169Z" fill="#BEC6C6"/>
<path d="M55.5001 108.688C55.1532 108.688 55.5001 108.688 47.5914 107.046C25.6457 102.351 11.5626 82.4175 11.5626 67.9644C11.6752 64.269 12.3778 60.6154 13.6439 57.1419C15.2223 51.5745 15.0934 45.6615 13.2739 40.1681C11.0307 33.5081 11.5626 28.6056 11.5626 18.5C11.5363 17.9957 11.6757 17.4967 11.9597 17.0791C12.2436 16.6616 12.6565 16.3484 13.1351 16.1875C58.5064 1.17938 55.1764 2.08125 56.2401 2.42813L97.8651 16.3031C98.3244 16.4583 98.7234 16.7538 99.0055 17.148C99.2877 17.5423 99.4389 18.0152 99.4376 18.5C99.4376 28.7906 99.9232 33.67 97.7263 40.1912C92.477 56.055 103.045 61.3737 98.1426 75.9656C95.5442 83.7047 90.9819 90.637 84.9018 96.0848C78.8217 101.533 71.432 105.309 63.4551 107.046C60.8338 107.731 58.1785 108.279 55.5001 108.688ZM16.1876 20.165C16.1876 28.9525 15.7945 33.1612 17.6676 38.665C19.791 45.0401 19.9361 51.9084 18.0839 58.3675C16.6732 63.3162 15.0314 67.8488 17.2514 74.555C19.604 81.5268 23.7263 87.7684 29.2148 92.6691C34.7033 97.5698 41.37 100.962 48.5626 102.513L55.5001 104.062L62.4376 102.559C69.6434 100.998 76.3189 97.5883 81.8085 92.6663C87.2982 87.7443 91.413 81.4789 93.7489 74.4856C96.0614 67.8256 94.2345 63.0387 92.9164 58.4369C91.0627 51.978 91.2078 45.1092 93.3326 38.7344C94.3068 35.8032 94.8064 32.7351 94.8126 29.6462V20.165L55.5001 7.05313L16.1876 20.165Z" fill="#414141"/>
<path d="M55.5 78.625C50.9263 78.625 46.4553 77.2688 42.6524 74.7277C38.8496 72.1867 35.8856 68.5751 34.1353 64.3496C32.385 60.124 31.9271 55.4744 32.8194 50.9886C33.7116 46.5027 35.9141 42.3823 39.1482 39.1482C42.3823 35.9141 46.5027 33.7116 50.9886 32.8194C55.4744 31.9271 60.124 32.385 64.3496 34.1353C68.5751 35.8856 72.1867 38.8496 74.7277 42.6524C77.2688 46.4553 78.625 50.9263 78.625 55.5C78.625 61.6331 76.1886 67.5151 71.8519 71.8519C67.5151 76.1886 61.6331 78.625 55.5 78.625ZM55.5 37C51.8411 37 48.2643 38.085 45.222 40.1178C42.1797 42.1506 39.8085 45.0399 38.4082 48.4204C37.008 51.8008 36.6417 55.5205 37.3555 59.1092C38.0693 62.6978 39.8313 65.9942 42.4185 68.5815C45.0058 71.1688 48.3022 72.9307 51.8908 73.6445C55.4795 74.3584 59.1992 73.992 62.5797 72.5918C65.9601 71.1916 68.8494 68.8204 70.8822 65.7781C72.915 62.7358 74 59.159 74 55.5C74 50.5935 72.0509 45.888 68.5815 42.4185C65.1121 38.9491 60.4065 37 55.5 37Z" fill="#BEC6C6"/>
</svg>
